<?xml version="1.0" encoding="utf-8"?>
<!-- Generator: Adobe Illustrator 16.0.0, SVG Export Plug-In . SVG Version: 6.00 Build 0)  -->
<!DOCTYPE svg PUBLIC "-//W3C//DTD SVG 1.1//EN" "http://www.w3.org/Graphics/SVG/1.1/DTD/svg11.dtd">
<svg version="1.1" id="レイヤー_1" xmlns="http://www.w3.org/2000/svg" xmlns:xlink="http://www.w3.org/1999/xlink" x="0px"
	 y="0px" width="600px" height="600px" viewBox="0 0 600 600" enable-background="new 0 0 600 600" xml:space="preserve">
<g>
	<g id="楕円形_3_のコピー">
		<g>
			<path fill="#898989" d="M127.796,159.15c-69.613,0-126.042,56.462-126.042,126.113c0,69.655,56.429,126.114,126.042,126.114
				c69.611,0,126.045-56.459,126.045-126.114C253.841,215.612,197.407,159.15,127.796,159.15z"/>
		</g>
	</g>
	<g id="楕円形_3">
		<g>
			<path fill="#FFFFFF" d="M128.654,183.566c-56.634,0-102.547,45.928-102.547,102.585c0,56.659,45.913,102.583,102.547,102.583
				c56.637,0,102.55-45.924,102.55-102.583C231.204,229.494,185.291,183.566,128.654,183.566z"/>
		</g>
	</g>
	<g>
		<path fill="#898989" d="M41.712,364.887l33.125-169.417l54.019,122.47l55.956-122.47l29.761,169.417h-24.359l-15.187-95.119
			l-46.578,102.365L83.194,269.666l-16.919,95.221H41.712z"/>
	</g>
	<g>
		<path fill="#898989" d="M279.844,371.105l-42.908-77.788h25.568l29.193,54.932l27.233-54.932h24.883L267.794,440.85h-25.177
			L279.844,371.105z"/>
	</g>
	<g>
		<path fill="#898989" d="M355.879,382.002h-13.454v-90.054h13.454v6.347c5.302-5.308,11.321-7.963,18.059-7.963
			c8.013,0,14.61,2.955,19.793,8.862c5.262,5.867,7.894,13.273,7.894,22.215c0,8.742-2.612,16.027-7.834,21.854
			c-5.183,5.789-11.72,8.684-19.613,8.684c-6.816,0-12.916-2.734-18.298-8.203V382.002z M387.87,321.467
			c0-5.588-1.516-10.139-4.544-13.65c-3.07-3.553-6.937-5.33-11.601-5.33c-4.944,0-8.95,1.717-12.02,5.15
			c-3.07,3.434-4.604,7.943-4.604,13.531c0,5.469,1.534,9.98,4.604,13.531c3.029,3.475,7.016,5.211,11.959,5.211
			c4.664,0,8.511-1.756,11.541-5.27C386.315,331.129,387.87,326.736,387.87,321.467z"/>
		<path fill="#898989" d="M452.666,291.948h13.515v58.319h-13.515v-6.107c-5.541,5.189-11.501,7.785-17.879,7.785
			c-8.053,0-14.71-2.914-19.972-8.742c-5.224-5.947-7.834-13.373-7.834-22.275c0-8.742,2.61-16.025,7.834-21.854
			c5.222-5.828,11.759-8.742,19.613-8.742c6.776,0,12.856,2.794,18.237,8.383V291.948z M420.735,320.928
			c0,5.59,1.494,10.141,4.484,13.652c3.069,3.553,6.937,5.33,11.601,5.33c4.982,0,9.009-1.717,12.079-5.15
			c3.069-3.553,4.604-8.062,4.604-13.531s-1.535-9.979-4.604-13.533c-3.07-3.473-7.057-5.209-11.96-5.209
			c-4.624,0-8.49,1.758-11.601,5.27C422.27,311.309,420.735,315.699,420.735,320.928z"/>
		<path fill="#898989" d="M533.367,348.891c0,2.754-0.089,5.18-0.269,7.275s-0.429,3.941-0.748,5.539
			c-0.956,4.391-2.83,8.162-5.62,11.316c-5.263,6.066-12.498,9.102-21.707,9.102c-7.773,0-14.171-2.107-19.194-6.318
			c-5.183-4.33-8.173-10.309-8.97-17.932h13.515c0.518,2.873,1.375,5.09,2.571,6.646c2.789,3.631,6.855,5.447,12.198,5.447
			c9.846,0,14.77-6.027,14.77-18.082v-8.143c-5.342,5.469-11.501,8.203-18.477,8.203c-7.934,0-14.432-2.875-19.494-8.623
			c-5.104-5.828-7.654-13.113-7.654-21.855c0-8.502,2.371-15.727,7.116-21.675c5.103-6.307,11.84-9.46,20.211-9.46
			c7.335,0,13.434,2.735,18.298,8.203v-6.586h13.454V348.891z M520.451,321.258c0-5.66-1.516-10.184-4.544-13.57
			c-3.07-3.467-6.996-5.201-11.78-5.201c-5.104,0-9.129,1.894-12.079,5.68c-2.671,3.389-4.006,7.771-4.006,13.152
			c0,5.301,1.335,9.645,4.006,13.031c2.909,3.707,6.937,5.561,12.079,5.561s9.209-1.873,12.198-5.619
			C519.076,330.902,520.451,326.559,520.451,321.258z"/>
		<path fill="#898989" d="M597.268,324.281h-41.738c0.358,4.791,1.913,8.604,4.664,11.438c2.751,2.793,6.278,4.191,10.584,4.191
			c3.349,0,6.119-0.799,8.312-2.396c2.153-1.596,4.604-4.551,7.355-8.861L597.806,335c-1.755,2.994-3.608,5.559-5.562,7.693
			c-1.953,2.137-4.046,3.893-6.278,5.27c-2.233,1.377-4.645,2.385-7.235,3.023c-2.592,0.639-5.402,0.959-8.432,0.959
			c-8.691,0-15.667-2.795-20.929-8.383c-5.263-5.629-7.894-13.094-7.894-22.395c0-9.221,2.551-16.686,7.654-22.394
			c5.143-5.628,11.959-8.442,20.45-8.442c8.571,0,15.348,2.735,20.331,8.203c4.942,5.429,7.415,12.954,7.415,22.573L597.268,324.281
			z M583.454,313.264c-1.874-7.185-6.398-10.777-13.574-10.777c-1.635,0-3.169,0.25-4.604,0.748c-1.436,0.5-2.742,1.219-3.917,2.156
			c-1.177,0.938-2.183,2.066-3.02,3.383c-0.838,1.318-1.476,2.814-1.914,4.49H583.454z"/>
	</g>
	<g id="長方形_16">
		<g>
			<rect x="185.456" y="278.861" fill="#898989" width="402.158" height="14.935"/>
		</g>
	</g>
	<g id="楕円形_2">
		<g>
			<ellipse fill="#898989" cx="587.233" cy="290.597" rx="11.762" ry="11.735"/>
		</g>
	</g>
</g>
</svg>
