<svg  height="100px" width="144px" xmlns="http://www.w3.org/2000/svg" viewBox="150 180 402 582">

 <g>
  <title>background</title>
  <rect fill="none" id="canvas_background" height="402" width="582" y="-1" x="-1"/>
 </g>
 <g>
  <title>Layer 1</title>
  <g display="none" id="レイヤー_1">
   <g id="svg_1">
    <g display="inline" id="楕円形_3_のコピー">
     <g id="svg_2">
      <path id="svg_3" d="m127.796,159.15c-69.613,0 -126.042,56.462 -126.042,126.113c0,69.655 56.429,126.114 126.042,126.114c69.611,0 126.045,-56.459 126.045,-126.114c0,-69.651 -56.434,-126.113 -126.045,-126.113z" fill="#898989"/>
     </g>
    </g>
    <g display="inline" id="楕円形_3">
     <g id="svg_4">
      <path id="svg_5" d="m128.654,183.566c-56.634,0 -102.547,45.928 -102.547,102.585c0,56.659 45.913,102.583 102.547,102.583c56.637,0 102.55,-45.925 102.55,-102.583c0,-56.657 -45.913,-102.585 -102.55,-102.585z" fill="#FFFFFF"/>
     </g>
    </g>
    <g id="svg_6" display="inline">
     <path id="svg_7" d="m41.712,364.887l33.125,-169.417l54.019,122.47l55.956,-122.47l29.761,169.417l-24.359,0l-15.187,-95.119l-46.578,102.365l-45.255,-102.467l-16.919,95.221l-24.563,0z" fill="#898989"/>
    </g>
    <g id="svg_8" display="inline">
     <path id="svg_9" d="m279.844,371.105l-42.908,-77.789l25.568,0l29.193,54.932l27.233,-54.932l24.883,0l-76.019,147.534l-25.177,0l37.227,-69.745z" fill="#898989"/>
    </g>
    <g id="svg_10" display="inline">
     <path id="svg_11" d="m355.879,382.002l-13.454,0l0,-90.054l13.454,0l0,6.347c5.303,-5.308 11.321,-7.963 18.059,-7.963c8.014,0 14.61,2.955 19.793,8.862c5.263,5.867 7.895,13.273 7.895,22.215c0,8.742 -2.612,16.026 -7.834,21.854c-5.184,5.789 -11.721,8.685 -19.613,8.685c-6.816,0 -12.916,-2.734 -18.298,-8.203l-0.002,38.257l0,0zm31.991,-60.535c0,-5.588 -1.517,-10.139 -4.544,-13.649c-3.07,-3.554 -6.938,-5.331 -11.602,-5.331c-4.943,0 -8.949,1.718 -12.02,5.15c-3.07,3.435 -4.604,7.943 -4.604,13.531c0,5.469 1.533,9.98 4.604,13.531c3.029,3.475 7.016,5.211 11.959,5.211c4.664,0 8.511,-1.756 11.541,-5.271c3.11,-3.51 4.666,-7.903 4.666,-13.172z" fill="#898989"/>
     <path id="svg_12" d="m452.666,291.948l13.515,0l0,58.318l-13.515,0l0,-6.106c-5.541,5.188 -11.501,7.785 -17.879,7.785c-8.053,0 -14.71,-2.914 -19.972,-8.742c-5.225,-5.947 -7.834,-13.373 -7.834,-22.275c0,-8.742 2.609,-16.025 7.834,-21.854c5.222,-5.828 11.759,-8.742 19.612,-8.742c6.776,0 12.856,2.794 18.237,8.383l0.002,-6.767l0,0zm-31.931,28.98c0,5.59 1.493,10.142 4.483,13.652c3.069,3.553 6.938,5.33 11.602,5.33c4.981,0 9.009,-1.717 12.079,-5.15c3.068,-3.553 4.604,-8.062 4.604,-13.531c0,-5.469 -1.535,-9.979 -4.604,-13.532c-3.07,-3.474 -7.058,-5.21 -11.96,-5.21c-4.624,0 -8.49,1.759 -11.602,5.271c-3.067,3.551 -4.602,7.941 -4.602,13.17z" fill="#898989"/>
     <path id="svg_13" d="m533.367,348.891c0,2.754 -0.089,5.181 -0.27,7.275c-0.18,2.095 -0.429,3.941 -0.748,5.539c-0.955,4.391 -2.83,8.162 -5.619,11.316c-5.264,6.065 -12.498,9.102 -21.707,9.102c-7.773,0 -14.172,-2.107 -19.194,-6.318c-5.183,-4.33 -8.173,-10.309 -8.97,-17.932l13.515,0c0.518,2.873 1.375,5.09 2.571,6.646c2.789,3.632 6.854,5.447 12.197,5.447c9.847,0 14.771,-6.026 14.771,-18.082l0,-8.143c-5.342,5.469 -11.501,8.203 -18.477,8.203c-7.935,0 -14.433,-2.875 -19.494,-8.623c-5.104,-5.828 -7.654,-13.113 -7.654,-21.855c0,-8.502 2.371,-15.728 7.116,-21.675c5.103,-6.307 11.84,-9.46 20.211,-9.46c7.335,0 13.434,2.735 18.298,8.203l0,-6.586l13.454,0l0,56.943l0,0zm-12.916,-27.633c0,-5.66 -1.517,-10.184 -4.544,-13.57c-3.07,-3.467 -6.996,-5.201 -11.78,-5.201c-5.104,0 -9.129,1.895 -12.079,5.681c-2.671,3.389 -4.006,7.771 -4.006,13.152c0,5.301 1.335,9.645 4.006,13.03c2.909,3.707 6.938,5.562 12.079,5.562s9.209,-1.873 12.198,-5.619c2.751,-3.391 4.126,-7.734 4.126,-13.035z" fill="#898989"/>
     <path id="svg_14" d="m597.268,324.281l-41.738,0c0.357,4.791 1.913,8.604 4.664,11.438c2.751,2.793 6.277,4.191 10.584,4.191c3.349,0 6.119,-0.799 8.312,-2.396c2.153,-1.596 4.604,-4.551 7.355,-8.86l11.36,6.347c-1.755,2.994 -3.607,5.559 -5.562,7.693c-1.953,2.137 -4.046,3.893 -6.278,5.27s-4.645,2.385 -7.234,3.023c-2.593,0.639 -5.402,0.959 -8.433,0.959c-8.69,0 -15.667,-2.795 -20.929,-8.383c-5.263,-5.63 -7.895,-13.095 -7.895,-22.396c0,-9.221 2.552,-16.687 7.654,-22.394c5.144,-5.628 11.959,-8.442 20.45,-8.442c8.571,0 15.348,2.735 20.331,8.203c4.942,5.429 7.415,12.954 7.415,22.573l-0.056,3.174zm-13.814,-11.017c-1.874,-7.185 -6.398,-10.777 -13.574,-10.777c-1.635,0 -3.169,0.25 -4.604,0.748c-1.437,0.5 -2.742,1.22 -3.917,2.156c-1.178,0.938 -2.184,2.066 -3.021,3.384c-0.838,1.317 -1.476,2.813 -1.914,4.489l27.03,0l0,0z" fill="#898989"/>
    </g>
    <g display="inline" id="長方形_16">
     <g id="svg_15">
      <rect id="svg_16" height="14.935" width="402.158" fill="#898989" y="278.861" x="185.456"/>
     </g>
    </g>
    <g display="inline" id="楕円形_2">
     <g id="svg_17">
      <ellipse id="svg_18" ry="11.735" rx="11.762" cy="290.597" cx="587.233" fill="#898989"/>
     </g>
    </g>
   </g>
   <g id="svg_19">
    <g id="svg_20" display="inline">
     <path id="svg_21" d="m58.463,463.332l0,65.5l-24.308,0l0,-161.295l27.542,0c13.492,0 23.682,0.94 30.567,2.821c6.954,1.88 13.075,5.432 18.361,10.654c9.25,9.056 13.875,20.476 13.875,34.267c0,14.765 -4.938,26.465 -14.813,35.1c-9.876,8.637 -23.196,12.953 -39.957,12.953l-11.267,0zm0,-22.564l9.077,0c22.326,0 33.489,-8.601 33.489,-25.803c0,-16.644 -11.512,-24.967 -34.532,-24.967l-8.033,0l-0.001,50.77l0,0z" fill="#FF0000"/>
     <path id="svg_22" d="m217.101,489.657l-65.512,0l-17.046,39.175l-24.876,0l75.72,-171.427l73.044,171.427l-25.273,0l-16.057,-39.175zm-9.415,-22.878l-22.696,-54.845l-23.787,54.845l46.483,0z" fill="#FF0000"/>
     <path id="svg_23" d="m294.712,463.332l0,65.5l-24.308,0l0,-161.295l27.542,0c13.494,0 23.682,0.94 30.568,2.821c6.953,1.88 13.073,5.432 18.36,10.654c9.25,9.056 13.876,20.476 13.876,34.267c0,14.765 -4.939,26.465 -14.814,35.1c-9.877,8.637 -23.197,12.953 -39.957,12.953l-11.267,0zm0,-22.564l9.076,0c22.327,0 33.489,-8.601 33.489,-25.803c0,-16.644 -11.512,-24.967 -34.533,-24.967l-8.032,0l0,50.77l0,0z" fill="#FF0000"/>
     <path id="svg_24" d="m466.127,390.416l-64.577,0l0,38.756l62.7,0l0,22.878l-62.7,0l0,53.904l64.577,0l0,22.878l-88.885,0l0,-161.295l88.885,0l0,22.879l0,0z" fill="#FF0000"/>
     <path id="svg_25" d="m548.341,460.094l49.868,68.738l-29.733,0l-46.008,-66.021l-4.38,0l0,66.021l-24.31,0l0,-161.295l28.48,0c21.281,0 36.651,4.007 46.112,12.015c10.433,8.915 15.648,20.684 15.648,35.31c0,11.423 -3.271,21.241 -9.808,29.459s-15.158,13.475 -25.869,15.773zm-30.253,-18.49l7.719,0c23.02,0 34.531,-8.809 34.531,-26.43c0,-16.506 -11.197,-24.758 -33.593,-24.758l-8.657,0l0,51.188z" fill="#FF0000"/>
    </g>
    <g display="inline" id="長方形_13">
     <g id="svg_26">
      <polygon id="svg_27" points="572.155,71.168 1.791,118.679 20.613,343.901 590.979,296.392     " fill="#FF0000"/>
     </g>
    </g>
    <g id="svg_28" display="inline">
     <path id="svg_29" d="m155.076,159.716l-57.425,4.784l3.314,39.667l55.397,-4.614l1.957,23.415l-55.397,4.614l6.566,78.587l-24.87,2.072l-13.793,-165.085l82.296,-6.855l1.955,23.415z" fill="#FFFFFF"/>
     <path id="svg_30" d="m191.236,194.494l24.017,-2.001l0.777,9.303c4.024,-5 7.673,-8.498 10.946,-10.494c3.337,-2.071 7.391,-3.307 12.159,-3.704c6.333,-0.527 13.123,0.99 20.371,4.547l-9.154,22.942c-4.829,-2.898 -9.414,-4.168 -13.753,-3.807c-13.094,1.091 -18.812,11.543 -17.156,31.359l4.511,53.995l-24.017,2l-8.701,-104.14z" fill="#FFFFFF"/>
     <path id="svg_31" d="m381.936,236.749l-74.504,6.205c1.354,8.501 4.699,15.077 10.032,19.729c5.326,4.582 11.833,6.552 19.519,5.911c5.977,-0.497 10.802,-2.335 14.479,-5.513c3.604,-3.171 7.539,-8.812 11.807,-16.918l21.227,9.645c-2.684,5.607 -5.61,10.464 -8.778,14.566c-3.168,4.104 -6.642,7.552 -10.421,10.342c-3.779,2.792 -7.936,4.95 -12.464,6.476c-4.53,1.524 -9.501,2.514 -14.906,2.964c-15.515,1.293 -28.385,-2.658 -38.609,-11.856c-10.234,-9.27 -16.044,-22.205 -17.431,-38.814c-1.376,-16.467 2.063,-30.173 10.32,-41.126c8.34,-10.815 20.089,-16.854 35.246,-18.116c15.298,-1.275 27.803,2.6 37.515,11.624c9.632,8.96 15.168,22.029 16.604,39.207l0.364,5.674zm-26.302,-17.62c-4.416,-12.551 -13.028,-18.294 -25.837,-17.228c-2.919,0.243 -5.62,0.917 -8.107,2.022c-2.486,1.104 -4.711,2.582 -6.67,4.431c-1.959,1.85 -3.586,4.014 -4.887,6.489c-1.297,2.477 -2.212,5.245 -2.744,8.305l48.245,-4.019z" fill="#FFFFFF"/>
     <path id="svg_32" d="m513.8,225.765l-74.505,6.206c1.355,8.501 4.7,15.076 10.033,19.729c5.326,4.582 11.833,6.551 19.518,5.911c5.978,-0.498 10.805,-2.335 14.48,-5.513c3.604,-3.171 7.539,-8.811 11.806,-16.918l21.228,9.645c-2.687,5.606 -5.611,10.464 -8.778,14.565c-3.168,4.104 -6.644,7.552 -10.421,10.343c-3.78,2.791 -7.936,4.949 -12.464,6.476c-4.531,1.524 -9.501,2.514 -14.907,2.964c-15.515,1.292 -28.384,-2.659 -38.609,-11.857c-10.231,-9.268 -16.043,-22.205 -17.431,-38.814c-1.375,-16.466 2.062,-30.172 10.321,-41.126c8.34,-10.815 20.088,-16.854 35.245,-18.116c15.299,-1.274 27.804,2.601 37.516,11.625c9.631,8.959 15.167,22.029 16.604,39.206l0.364,5.674zm-26.301,-17.619c-4.417,-12.551 -13.029,-18.295 -25.838,-17.228c-2.918,0.243 -5.62,0.917 -8.106,2.021s-4.712,2.582 -6.67,4.431c-1.961,1.851 -3.587,4.015 -4.886,6.49c-1.299,2.477 -2.213,5.246 -2.745,8.304l48.245,-4.018z" fill="#FFFFFF"/>
    </g>
   </g>
   <g id="svg_33">
    <g id="svg_34" display="inline">
     <path id="svg_35" d="m144.143,460.811l-6.635,3.934c-1.043,-2.368 -2.341,-3.545 -3.879,-3.545c-0.736,0 -1.364,0.279 -1.886,0.814c-0.528,0.55 -0.789,1.244 -0.789,2.087c0,1.485 1.545,2.943 4.635,4.401c4.254,2.033 7.116,3.919 8.595,5.631c1.471,1.713 2.207,4.026 2.207,6.942c0,3.731 -1.237,6.849 -3.705,9.364c-2.408,2.381 -5.304,3.558 -8.702,3.558c-5.826,0 -9.945,-3.157 -12.367,-9.483l6.842,-3.53c0.95,1.846 1.679,3.021 2.174,3.53c0.976,1.003 2.14,1.513 3.491,1.513c2.715,0 4.066,-1.379 4.066,-4.135c0,-1.592 -1.043,-3.076 -3.137,-4.44c-0.81,-0.454 -1.612,-0.896 -2.428,-1.312c-0.802,-0.428 -1.625,-0.868 -2.454,-1.311c-2.334,-1.271 -3.966,-2.542 -4.923,-3.812c-1.21,-1.617 -1.812,-3.691 -1.812,-6.232c0,-3.371 1.03,-6.153 3.097,-8.349c2.12,-2.192 4.682,-3.289 7.698,-3.289c4.447,-0.001 7.745,2.553 9.912,7.664z" fill="#B7AA00"/>
     <path id="svg_36" d="m153.104,438.137c0,-1.563 0.515,-2.916 1.539,-4.053c1.017,-1.137 2.247,-1.712 3.671,-1.712c1.452,0 2.682,0.575 3.706,1.712c1.023,1.11 1.532,2.475 1.532,4.094c0,1.604 -0.508,2.982 -1.532,4.119c-0.997,1.138 -2.22,1.713 -3.672,1.713c-1.445,0 -2.688,-0.575 -3.705,-1.713c-1.023,-1.137 -1.539,-2.527 -1.539,-4.16zm9.237,16.079l0,38.671l-8.019,0l0,-38.671l8.019,0z" fill="#B7AA00"/>
     <path id="svg_37" d="m173.236,454.216l8.053,0l0,3.571c2.802,-3.09 5.966,-4.643 9.483,-4.643c4.04,0 7.184,1.419 9.444,4.24c1.953,2.408 2.923,6.341 2.923,11.798l0,23.703l-8.059,0l0,-21.575c0,-3.799 -0.468,-6.434 -1.418,-7.892c-0.93,-1.472 -2.622,-2.221 -5.07,-2.221c-2.662,0 -4.548,0.988 -5.665,2.941c-1.09,1.928 -1.638,5.297 -1.638,10.113l0,18.633l-8.053,0l0,-38.668z" fill="#B7AA00"/>
     <path id="svg_38" d="m241.015,455.888l0,11.865c-1.833,-2.488 -3.471,-4.188 -4.922,-5.124c-1.425,-0.949 -3.104,-1.431 -5.023,-1.431c-3.017,0 -5.524,1.177 -7.524,3.545c-1.993,2.354 -2.996,5.297 -2.996,8.854c0,3.625 0.963,6.596 2.889,8.937c1.953,2.328 4.434,3.492 7.451,3.492c1.926,0 3.625,-0.47 5.097,-1.393c1.431,-0.896 3.103,-2.647 5.029,-5.243l0,11.799c-3.257,1.871 -6.514,2.809 -9.765,2.809c-5.377,0 -9.865,-1.926 -13.477,-5.792c-3.618,-3.893 -5.424,-8.722 -5.424,-14.486c0,-5.778 1.833,-10.647 5.498,-14.621c3.652,-3.973 8.146,-5.951 13.47,-5.951c3.423,-0.002 6.654,0.907 9.697,2.74z" fill="#B7AA00"/>
     <path id="svg_39" d="m281.131,475.658l-24.88,0c0.214,3.17 1.144,5.698 2.782,7.584c1.639,1.858 3.746,2.783 6.314,2.783c1.993,0 3.645,-0.535 4.949,-1.593c1.284,-1.058 2.742,-3.022 4.387,-5.873l6.769,4.2c-1.043,1.993 -2.147,3.692 -3.311,5.11c-1.17,1.418 -2.415,2.581 -3.746,3.491c-1.331,0.908 -2.769,1.578 -4.314,2.006c-1.545,0.429 -3.224,0.629 -5.029,0.629c-5.177,0 -9.337,-1.846 -12.474,-5.551c-3.137,-3.732 -4.702,-8.683 -4.702,-14.85c0,-6.126 1.518,-11.074 4.561,-14.86c3.063,-3.731 7.13,-5.592 12.193,-5.592c5.103,0 9.143,1.807 12.119,5.432c2.949,3.61 4.421,8.602 4.421,14.981l-0.039,2.103zm-8.227,-7.304c-1.124,-4.774 -3.819,-7.155 -8.093,-7.155c-0.977,0 -1.893,0.174 -2.749,0.495c-0.856,0.334 -1.639,0.814 -2.334,1.431c-0.703,0.629 -1.298,1.378 -1.806,2.247c-0.495,0.87 -0.876,1.873 -1.137,2.982l16.119,0z" fill="#B7AA00"/>
     <path id="svg_40" d="m327.115,484.192l20.506,0l0,8.693l-36.973,0l19.103,-25.763c1.886,-2.568 3.464,-4.789 4.735,-6.675c1.271,-1.888 2.232,-3.451 2.902,-4.723c1.352,-2.487 2.032,-4.734 2.032,-6.716c0,-2.861 -0.91,-5.256 -2.715,-7.183c-1.808,-1.939 -4.04,-2.903 -6.702,-2.903c-5.564,0 -8.748,3.666 -9.551,10.996l-8.268,0c1.324,-12.922 7.185,-19.369 17.563,-19.369c5.017,0 9.229,1.767 12.627,5.312c3.425,3.559 5.138,7.944 5.138,13.188c0,3.33 -0.804,6.607 -2.396,9.806c-0.804,1.672 -1.993,3.65 -3.546,5.938c-1.551,2.287 -3.53,5.002 -5.897,8.119l-8.558,11.28z" fill="#B7AA00"/>
     <path id="svg_41" d="m357.721,461.84c0,-9.765 2.047,-17.562 6.127,-23.395c3.666,-5.258 8.092,-7.894 13.297,-7.894c5.203,0 9.645,2.636 13.295,7.894c4.095,5.832 6.141,13.75 6.141,23.796c0,10.006 -2.046,17.911 -6.141,23.743c-3.65,5.271 -8.078,7.905 -13.256,7.905c-5.177,0 -9.617,-2.636 -13.336,-7.905c-4.08,-5.832 -6.127,-13.871 -6.127,-24.144zm8.2,0.041c0,6.81 1.058,12.453 3.17,16.947c2.113,4.428 4.802,6.635 8.079,6.635c3.251,0 5.939,-2.207 8.08,-6.635c2.127,-4.387 3.195,-9.938 3.195,-16.627c0,-6.701 -1.068,-12.267 -3.195,-16.68c-2.141,-4.401 -4.829,-6.597 -8.08,-6.597c-3.236,0 -5.912,2.194 -8.053,6.597c-2.127,4.361 -3.196,9.819 -3.196,16.36z" fill="#B7AA00"/>
     <path id="svg_42" d="m414.558,440.277l-9.511,0l4.562,-8.694l13.256,0l0,61.304l-8.308,0l0,-52.61l0.001,0z" fill="#B7AA00"/>
     <path id="svg_43" d="m464.732,440.277l-27.168,0l0,-8.694l41.038,0l-34.723,63.417l-6.595,-4.641l27.448,-50.082z" fill="#B7AA00"/>
    </g>
    <g id="svg_44" display="inline">
     <path id="svg_45" d="m89.834,251.505l78.935,108.808l-47.059,0l-72.828,-104.507l-6.936,0l0,104.506l-38.477,0l0,-255.312l45.085,0c33.682,0 58.014,6.34 72.989,19.018c16.513,14.112 24.767,32.739 24.767,55.89c0,18.078 -5.177,33.622 -15.517,46.63c-10.354,13.009 -24.004,21.329 -40.959,24.967zm-47.888,-29.267l12.219,0c36.438,0 54.663,-13.945 54.663,-41.835c0,-26.124 -17.724,-39.189 -53.171,-39.189l-13.711,0l0,81.024z" fill="#B7AA00"/>
     <path id="svg_46" d="m177.457,132.285c0,-6.501 2.368,-12.126 7.096,-16.865c4.735,-4.738 10.407,-7.113 17.015,-7.113c6.715,0 12.44,2.375 17.175,7.113c4.729,4.628 7.103,10.307 7.103,17.032s-2.374,12.457 -7.103,17.196c-4.628,4.742 -10.3,7.109 -17.015,7.109s-12.44,-2.368 -17.175,-7.109c-4.729,-4.739 -7.096,-10.528 -7.096,-17.363zm42.771,66.969l0,161.059l-37.16,0l0,-161.059l37.16,0z" fill="#B7AA00"/>
     <path id="svg_47" d="m343.836,226.702l-30.712,16.37c-4.843,-9.808 -10.839,-14.714 -17.995,-14.714c-3.417,0 -6.333,1.127 -8.755,3.388c-2.421,2.257 -3.625,5.146 -3.625,8.668c0,6.167 7.15,12.276 21.463,18.333c19.706,8.48 32.963,16.296 39.798,23.452c6.822,7.157 10.233,16.791 10.233,28.903c0,15.522 -5.726,28.519 -17.177,38.979c-11.115,9.905 -24.545,14.861 -40.285,14.861c-26.974,0 -46.069,-13.177 -57.305,-39.521l31.708,-14.721c4.401,7.719 7.765,12.628 10.073,14.721c4.515,4.194 9.905,6.281 16.186,6.281c12.551,0 18.825,-5.727 18.825,-17.195c0,-6.615 -4.844,-12.785 -14.537,-18.521c-3.739,-1.873 -7.484,-3.691 -11.224,-5.454c-3.746,-1.762 -7.545,-3.582 -11.397,-5.458c-10.788,-5.291 -18.386,-10.584 -22.787,-15.875c-5.612,-6.722 -8.421,-15.379 -8.421,-25.96c0,-13.999 4.789,-25.572 14.366,-34.725c9.792,-9.149 21.684,-13.724 35.669,-13.724c20.579,0 35.879,10.64 45.899,31.912z" fill="#B7AA00"/>
     <path id="svg_48" d="m517.168,288.545l-115.265,0c0.988,13.229 5.284,23.76 12.882,31.585c7.598,7.719 17.336,11.571 29.228,11.571c9.243,0 16.895,-2.201 22.954,-6.608c5.952,-4.414 12.722,-12.574 20.318,-24.476l31.367,17.525c-4.843,8.268 -9.966,15.351 -15.355,21.249c-5.391,5.898 -11.17,10.748 -17.336,14.554c-6.166,3.799 -12.828,6.582 -19.984,8.348c-7.155,1.766 -14.915,2.648 -23.289,2.648c-23.996,0 -43.259,-7.72 -57.785,-23.154c-14.541,-15.544 -21.805,-36.154 -21.805,-61.84c0,-25.465 7.051,-46.079 21.135,-61.843c14.207,-15.543 33.027,-23.315 56.477,-23.315c23.677,0 42.391,7.551 56.155,22.653c13.644,14.995 20.465,35.775 20.465,62.341l-0.162,8.762zm-38.149,-30.425c-5.177,-19.844 -17.671,-29.763 -37.48,-29.763c-4.521,0 -8.748,0.689 -12.721,2.067c-3.959,1.377 -7.57,3.364 -10.809,5.953c-3.251,2.592 -6.033,5.705 -8.347,9.343c-2.301,3.635 -4.066,7.772 -5.284,12.4l74.641,0z" fill="#B7AA00"/>
     <path id="svg_49" d="m550.623,341.787c0,-6.167 2.26,-11.519 6.768,-16.039c4.521,-4.521 9.912,-6.781 16.187,-6.781c6.273,0 11.665,2.26 16.186,6.781c4.508,4.521 6.77,9.926 6.77,16.206c0,6.399 -2.262,11.852 -6.77,16.372c-4.399,4.408 -9.805,6.615 -16.186,6.615c-6.487,0 -11.944,-2.207 -16.347,-6.615c-4.401,-4.407 -6.608,-9.918 -6.608,-16.539zm4.293,-38.361l0,-198.426l37.32,0l0,198.426l-37.32,0z" fill="#B7AA00"/>
    </g>
   </g>
   <g id="svg_50" display="inline">
    <g id="svg_51">
     <path id="svg_52" d="m375.318,203.967l-80.725,0l-12.891,43.304c1.922,-0.226 3.756,-0.396 5.51,-0.509c1.754,-0.113 3.363,-0.171 4.833,-0.171c25.437,0 46.297,8.607 62.579,25.813c16.393,17.098 24.596,39.002 24.596,65.722c0,27.622 -9.273,50.379 -27.812,68.266c-18.547,17.888 -41.896,26.832 -70.047,26.832c-34.708,0 -62.068,-16.304 -82.081,-48.911l29.85,-25.301c8.25,14.04 16.559,23.946 24.929,29.719c8.363,5.662 18.597,8.49 30.693,8.49c15.831,0 29.112,-5.546 39.855,-16.643c10.742,-11.432 16.115,-25.3 16.115,-41.604c0,-16.755 -5.322,-30.453 -15.947,-41.098c-10.627,-10.98 -23.909,-16.472 -39.849,-16.472c-17.752,0 -33.074,7.755 -45.964,23.266l-13.058,0l41.211,-137.892l108.201,0l0,37.189l0.002,0z" fill="#E0E0E0"/>
    </g>
    <g id="svg_53">
     <path id="svg_54" d="m4.781,372.848l0,-81.207l55.377,58.014l0,-52.842l11.46,0l0,80.665l-55.377,-57.863l0,53.234l-11.46,-0.001l0,0z" fill="#EA422C"/>
     <path id="svg_55" d="m86.715,334.486c0,-10.703 3.918,-19.896 11.755,-27.579c7.803,-7.683 17.179,-11.522 28.13,-11.522c10.821,0 20.102,3.873 27.838,11.621c7.77,7.748 11.653,17.057 11.653,27.924c0,10.934 -3.901,20.205 -11.704,27.822c-7.839,7.65 -17.294,11.475 -28.377,11.475c-9.805,0 -18.608,-3.397 -26.411,-10.192c-8.589,-7.52 -12.884,-17.369 -12.884,-29.549zm11.559,0.123c0,8.396 2.818,15.304 8.458,20.715c5.606,5.412 12.083,8.119 19.426,8.119c7.966,0 14.688,-2.756 20.166,-8.27c5.473,-5.575 8.21,-12.366 8.21,-20.369c0,-8.101 -2.7,-14.892 -8.112,-20.372c-5.379,-5.51 -12.035,-8.265 -19.969,-8.265c-7.901,0 -14.573,2.755 -20.016,8.265c-5.443,5.449 -8.163,12.174 -8.163,20.177z" fill="#EA422C"/>
     <path id="svg_56" d="m180.995,296.812l19.772,50.823l20.657,-54.517l19.769,54.517l20.999,-50.823l12.446,0l-33.938,80.861l-19.524,-53.876l-20.362,53.927l-32.262,-80.912l12.443,0z" fill="#EA422C"/>
    </g>
    <g id="svg_57">
     <path id="svg_58" d="m363.885,324.237l48.971,0l0,3.92c0,8.912 -1.049,16.806 -3.146,23.67c-2.052,6.354 -5.502,12.297 -10.364,17.832c-11.005,12.396 -24.994,18.597 -41.981,18.597c-16.581,0 -30.781,-5.997 -42.603,-17.98c-11.818,-12.042 -17.729,-26.49 -17.729,-43.349c0,-17.217 6.012,-31.818 18.042,-43.806c12.018,-12.042 26.653,-18.062 43.897,-18.062c9.266,0 17.911,1.889 25.939,5.659c7.679,3.778 15.227,9.91 22.644,18.397l-12.737,12.221c-9.725,-12.963 -21.565,-19.445 -35.541,-19.445c-12.533,0 -23.051,4.331 -31.545,12.988c-8.493,8.506 -12.737,19.161 -12.737,31.971c0,13.219 4.731,24.106 14.2,32.662c8.852,7.941 18.443,11.912 28.779,11.912c8.801,0 16.705,-2.963 23.721,-8.892c7.01,-5.979 10.918,-13.134 11.74,-21.464l-29.551,0l0,-16.831l0.001,0z" fill="#EA422C"/>
     <path id="svg_59" d="m429.428,326.159c0,-16.704 6.114,-31.05 18.351,-43.038c12.177,-11.991 26.807,-17.985 43.896,-17.985c16.887,0 31.371,6.045 43.446,18.138c12.126,12.093 18.188,26.618 18.188,43.577c0,17.062 -6.092,31.534 -18.269,43.425c-12.229,11.937 -26.989,17.904 -44.283,17.904c-15.3,0 -29.041,-5.303 -41.219,-15.906c-13.407,-11.735 -20.11,-27.107 -20.11,-46.115zm18.044,0.193c0,13.105 4.396,23.882 13.195,32.328c8.749,8.447 18.859,12.668 30.323,12.668c12.432,0 22.92,-4.298 31.465,-12.899c8.545,-8.702 12.817,-19.3 12.817,-31.789c0,-12.645 -4.223,-23.241 -12.665,-31.79c-8.393,-8.603 -18.778,-12.901 -31.159,-12.901c-12.33,0 -22.745,4.298 -31.239,12.901c-8.494,8.496 -12.737,18.988 -12.737,31.482z" fill="#EA422C"/>
     <path id="svg_60" d="m573.885,377.422c0,-2.871 1.049,-5.354 3.146,-7.457c2.097,-2.1 4.606,-3.15 7.52,-3.15c2.918,0 5.422,1.052 7.525,3.15c2.097,2.104 3.145,4.611 3.145,7.533c0,2.97 -1.048,5.507 -3.145,7.605c-2.045,2.05 -4.558,3.075 -7.525,3.075c-3.014,0 -5.547,-1.025 -7.6,-3.075c-2.047,-2.047 -3.066,-4.61 -3.066,-7.681zm1.995,-17.832l0,-92.227l17.345,0l0,92.227l-17.345,0z" fill="#EA422C"/>
    </g>
   </g>
  </g>
  <g id="レイヤー_3">
   <g id="svg_61">
    <g id="svg_62">
     <path id="svg_63" d="m346.905,364.137l26.359,0l0,34.118l-26.359,0l0,35.245l-37.449,0l0,-35.245l-121.835,0l159.284,-231.757l0,197.639l0,0zm-37.449,0l0,-83.209l-57.222,83.209l57.222,0z" fill="#ffffff"/>
    </g>
    <g id="svg_64">
     <path id="svg_65" d="m-22.302,372.496l0,-81.245l55.406,58.038l0,-52.869l11.466,0l0,80.708l-55.402,-57.894l0,53.261l-11.47,0l0,0.001z" fill="#fc6355"/>
     <path id="svg_66" d="m59.672,333.112c0,-10.704 3.921,-19.902 11.762,-27.588c7.806,-7.687 17.189,-11.531 28.145,-11.531c10.829,0 20.11,3.877 27.851,11.628c7.773,7.753 11.662,17.063 11.662,27.935c0,10.938 -3.902,20.219 -11.709,27.84c-7.843,7.653 -17.306,11.479 -28.393,11.479c-9.809,0 -18.618,-3.4 -26.423,-10.198c-8.598,-7.522 -12.895,-17.373 -12.895,-29.565zm11.565,0.124c0,8.404 2.822,15.313 8.461,20.724c5.612,5.419 12.088,8.127 19.437,8.127c7.974,0 14.695,-2.76 20.179,-8.273c5.476,-5.578 8.213,-12.371 8.213,-20.382c0,-8.104 -2.705,-14.899 -8.12,-20.378c-5.381,-5.513 -12.037,-8.27 -19.976,-8.27c-7.908,0 -14.582,2.757 -20.025,8.27c-5.445,5.451 -8.169,12.179 -8.169,20.182z" fill="#fc6355"/>
     <path id="svg_67" d="m153.999,296.42l19.781,50.853l20.667,-54.544l19.781,54.544l21.009,-50.853l12.448,0l-33.953,80.905l-19.531,-53.901l-20.376,53.953l-32.273,-80.957l12.447,0l0,0z" fill="#fc6355"/>
    </g>
    <g id="svg_68">
     <path id="svg_69" d="m343.635,283.8l-41.318,0l0,28.529l39.854,0l0,16.839l-39.854,0l0,56.518l-17.892,0l0,-118.726l59.21,0l0,16.84z" fill="#fc6355"/>
     <path id="svg_70" d="m358.608,325.781c0,-16.709 6.115,-31.064 18.348,-43.057c12.185,-11.994 26.828,-17.994 43.927,-17.994c16.897,0 31.382,6.05 43.46,18.147c12.141,12.1 18.207,26.629 18.207,43.597c0,17.074 -6.098,31.554 -18.281,43.444c-12.23,11.945 -27,17.919 -44.31,17.919c-15.308,0 -29.048,-5.306 -41.231,-15.916c-13.415,-11.738 -20.12,-27.117 -20.12,-46.14zm18.043,0.198c0,13.108 4.406,23.891 13.211,32.339c8.752,8.454 18.859,12.679 30.33,12.679c12.438,0 22.932,-4.304 31.488,-12.908c8.541,-8.706 12.823,-19.308 12.823,-31.805c0,-12.648 -4.225,-23.251 -12.672,-31.809c-8.395,-8.603 -18.786,-12.905 -31.18,-12.905c-12.339,0 -22.758,4.301 -31.25,12.905c-8.505,8.506 -12.75,19.004 -12.75,31.504z" fill="#fc6355"/>
     <path id="svg_71" d="m545.204,335.088l36.71,50.598l-21.89,0l-33.862,-48.598l-3.227,0l0,48.598l-17.891,0l0,-118.726l20.965,0c15.664,0 26.979,2.95 33.94,8.843c7.677,6.563 11.522,15.226 11.522,25.992c0,8.403 -2.409,15.634 -7.226,21.683c-4.804,6.046 -11.154,9.917 -19.041,11.61zm-22.268,-13.609l5.688,0c16.938,0 25.415,-6.486 25.415,-19.456c0,-12.147 -8.245,-18.223 -24.73,-18.223l-6.371,0l0,37.679l-0.002,0z" fill="#fc6355"/>
     <path id="svg_72" d="m599.957,377.07c0,-2.87 1.05,-5.354 3.145,-7.457c2.099,-2.104 4.612,-3.154 7.532,-3.154c2.911,0 5.425,1.05 7.521,3.154c2.097,2.104 3.146,4.612 3.146,7.536c0,2.973 -1.05,5.51 -3.146,7.611c-2.048,2.047 -4.559,3.076 -7.521,3.076c-3.023,0 -5.559,-1.028 -7.603,-3.076c-2.055,-2.05 -3.074,-4.613 -3.074,-7.69zm1.994,-17.838l0,-92.272l17.353,0l0,92.272l-17.353,0z" fill="#fc6355"/>
    </g>
   </g>
  </g>
  <g id="レイヤー_2"/>
 </g>
</svg>
