<?xml version="1.0" encoding="utf-8"?>
<!-- Generator: Adobe Illustrator 16.0.0, SVG Export Plug-In . SVG Version: 6.00 Build 0)  -->
<!DOCTYPE svg PUBLIC "-//W3C//DTD SVG 1.1//EN" "http://www.w3.org/Graphics/SVG/1.1/DTD/svg11.dtd">
<svg version="1.1" id="_x32_" xmlns="http://www.w3.org/2000/svg" xmlns:xlink="http://www.w3.org/1999/xlink" x="0px" y="0px"
	 width="600px" height="600px" viewBox="0 0 600 600" enable-background="new 0 0 600 600" xml:space="preserve">
<g>
	<path fill="#FFFFFF" d="M199.997,477.468c55.174,0,93.109-7.161,93.689-14.052c2.399-28.772-34.939-43.804-49.997-49.44
		c-8.072-3.021-19.831-11.841-19.831-17.317c0-3.627,0-8.172,0-14.386c4.672-5.182,8.199-15.729,10.311-27.659
		c4.919-1.758,7.723-4.576,11.233-16.851c3.738-13.094-5.617-12.659-5.617-12.659c7.561-25.022-2.384-48.541-19.058-46.823
		c-11.496-20.104-50.006,4.596-62.07,2.878c0,6.9,2.87,12.073,2.87,12.073c-4.198,7.98-2.582,23.851-1.409,31.872
		c-0.673,0-9.129,0.081-5.537,12.659c3.496,12.274,6.31,15.093,11.229,16.851c2.102,11.931,5.638,22.478,10.325,27.659
		c0,6.214,0,10.759,0,14.386c0,5.476-12.501,14.73-19.856,17.317c-15.139,5.333-52.387,20.668-49.988,49.44
		C106.874,470.307,144.809,477.468,199.997,477.468z"/>
	<path fill="#FFFFFF" d="M372.415,71.898c0-28.52-23.206-51.724-51.725-51.724h-41.379c-28.519,0-51.724,23.204-51.724,51.724
		v93.103h144.828V71.898z M331.035,92.589c0,5.717-4.627,10.345-10.346,10.345h-41.379c-5.718,0-10.345-4.626-10.345-10.345V71.898
		c0-5.719,4.626-10.345,10.345-10.345h41.379c5.718,0,10.346,4.626,10.346,10.345V92.589z"/>
	<path fill="#FFFFFF" d="M541.346,145.343H393.104v19.66c0,11.375-9.314,20.689-20.689,20.689H227.586
		c-11.375,0-20.689-9.314-20.689-20.689v-19.66H58.655C26.277,145.343,0,171.619,0,203.997v317.175
		c0,32.376,26.277,58.654,58.655,58.654h482.692c32.379,0,58.654-26.277,58.654-58.654V203.997
		C600,171.619,573.725,145.343,541.346,145.343z M537.931,532.243H62.069V221.898h475.862L537.931,532.243L537.931,532.243z"/>
	<rect x="345.693" y="311.557" fill="#FFFFFF" width="131.038" height="31.035"/>
	<rect x="345.693" y="401.226" fill="#FFFFFF" width="89.658" height="31.034"/>
</g>
</svg>
