<?xml version="1.0" encoding="utf-8"?>
<!-- Generator: Adobe Illustrator 16.0.0, SVG Export Plug-In . SVG Version: 6.00 Build 0)  -->
<!DOCTYPE svg PUBLIC "-//W3C//DTD SVG 1.1//EN" "http://www.w3.org/Graphics/SVG/1.1/DTD/svg11.dtd">
<svg version="1.1" xmlns="http://www.w3.org/2000/svg" xmlns:xlink="http://www.w3.org/1999/xlink" x="0px" y="0px" width="600px"
	 height="600px" viewBox="0 0 600 600" enable-background="new 0 0 600 600" xml:space="preserve">
<g id="レイヤー_10">
	<g id="icon_15132_1_" transform="translate(0,2560)">
		<g>
			<path fill="#FFF" d="M598.553-2203.16c0-0.079-1.604-23.925-5.047-53.211c-1.71-14.671-3.865-30.708-6.547-45.982
				c-2.656-15.039-5.731-29.262-9.675-41.224v-0.079l-0.237-0.658l-1.604-4.89l-0.314,0.105c-2.498-5.705-5.785-11.41-9.833-17.325
				c-8.966-13.093-21.638-27.237-37.779-41.434c-24.187-21.269-56.183-42.616-94.593-58.785
				c-38.384-16.129-83.262-27.053-132.713-27.053c-75.479,0.013-139.996,25.318-187.633,55.972
				c-23.846,15.354-43.511,32.074-58.522,48.006c-7.493,7.992-13.855,15.774-18.981,23.293c-4.022,5.942-7.309,11.673-9.833,17.378
				l-0.473-0.158l-1.683,5.021c-0.342,1.078-0.631,2.235-0.973,3.339l-0.5,1.315h0.079c-3.366,11.094-6.1,23.74-8.466,37.175
				c-3.97,22.872-6.862,47.558-8.754,66.619c-0.947,9.543-1.683,17.668-2.13,23.399c-0.236,2.892-0.394,5.152-0.552,6.729
				c-0.026,0.763-0.079,1.394-0.104,1.814l-0.027,0.473l-0.026,0.132l0,0l-0.631,5.731H1.5c0.21,8.598,2.366,17.01,5.758,25.186
				v0.026c3.576,8.597,8.571,17.089,14.775,25.345l0,0c3.312,4.39,7.624,8.912,13.198,14.117
				c9.701,9.071,23.293,20.033,40.25,31.575c25.396,17.325,58.286,35.911,96.328,50.318c38.016,14.382,81.21,24.583,126.982,24.583
				c69.721-0.053,134.002-23.584,183.374-49.848c24.713-13.145,45.746-27.053,61.915-39.382
				c8.122-6.179,15.037-11.963,20.664-17.168h0.025c5.627-5.153,9.965-9.675,13.33-14.117l-0.027,0.052l0.105-0.105v-0.025
				c6.204-8.256,11.2-16.748,14.774-25.345l0,0c3.393-8.202,5.522-16.614,5.759-25.212H599L598.553-2203.16z M523.126-2367.895
				c6.546,6.914,11.884,13.54,15.879,19.455c1.263,1.788,2.341,3.523,3.313,5.153c0.209,1.446,0.341,3.234,0.341,5.232
				c0,7.099-1.578,16.931-5.18,26.5c-3.627,9.623-9.253,19.008-17.01,26.028c-2.312,2.129-5.073,4.574-8.018,7.124
				c-6.1-11.226-24.714-42.748-59.312-78.345c-8.019-8.281-16.93-16.773-26.71-25.265c17.72-8.176,36.7-15.024,56.918-20.217
				C499.308-2390.807,512.741-2378.937,523.126-2367.895z M312.383-2391.07c13.355-8.255,27.525-15.932,42.591-22.794
				c15.458,9.149,29.603,18.811,42.354,28.643c-15.274,8.334-29.551,17.509-42.88,27.21
				C341.565-2369.394,327.552-2380.567,312.383-2391.07z M341.434-2348.23c-14.775,11.567-28.34,23.713-40.697,35.913
				c-0.92,0.894-1.761,1.814-2.655,2.708c-12.225-12.225-25.607-24.424-40.25-36.044c-1.078-0.841-2.182-1.682-3.286-2.523
				c13.224-11.621,27.657-22.925,43.3-33.521C313.566-2371.155,328.104-2359.85,341.434-2348.23z M297.792-2400.745
				c-12.777-8.097-26.291-15.668-40.566-22.583c12.515-6.744,25.87-13.106,40.066-18.956c14.434,5.811,28.025,12.133,40.697,18.863
				C323.846-2416.453,310.411-2408.855,297.792-2400.745z M283.306-2390.991c-15.064,10.529-28.945,21.676-41.723,33.06
				c-13.46-9.649-27.868-18.771-43.248-27.079c12.646-9.846,26.553-19.534,41.881-28.695
				C255.438-2406.896,269.792-2399.246,283.306-2390.991z M229.595-2346.889c-41.986,39.987-70.537,81.053-87.021,106.923
				c-18.324-10.148-33.126-20.744-44.772-30.051c4.18-7.913,22.688-41.118,59.705-78.713c8.176-8.308,17.299-16.826,27.342-25.344
				C200.781-2365.871,215.687-2356.695,229.595-2346.889z M242.583-2337.293c15.563,11.962,29.839,24.582,42.774,37.358
				c0.578,0.579,1.104,1.157,1.682,1.735c-17.457,18.613-32.258,36.912-44.483,53.211c-9.99,13.224-18.271,25.107-24.976,34.704
				c-23.004-5.838-43.221-13.698-60.835-22.295C173.229-2258.343,201.464-2298.568,242.583-2337.293z M255.254-2235.419
				c11.857-15.801,26.159-33.44,42.906-51.344c17.167,18.246,31.732,36.281,43.878,52.396c7.86,10.49,14.67,20.086,20.532,28.446
				c-19.139,3.549-39.908,5.627-62.465,5.652c-23.845-0.025-45.692-2.34-65.726-6.282
				C240.321-2215.043,247.236-2224.771,255.254-2235.419z M354.737-2243.91c-12.488-16.589-27.658-35.334-45.562-54.263
				c12.199-12.277,25.503-24.45,40.172-36.07c1.341-1.052,2.708-2.129,4.075-3.155c41.96,39.199,70.643,80.133,87.311,106.135
				c-17.798,8.465-38.174,16.142-61.257,21.715C372.798-2219.065,364.596-2230.87,354.737-2243.91z M366.383-2347.047
				c13.803-9.833,28.604-19.034,44.432-27.29c11.487,9.649,21.82,19.323,30.943,28.683c20.638,21.295,35.412,41.065,44.903,55.446
				c4.758,7.204,8.255,13.04,10.491,17.062c1.156,1.998,1.97,3.549,2.496,4.575l0.264,0.526
				c-11.805,9.254-26.791,19.638-44.983,29.497C438.287-2264.68,409.263-2306.534,366.383-2347.047z M465.813-2413.89
				c-18.745,5.626-36.334,12.646-52.897,20.69c-12.066-9.635-25.343-19.152-39.882-28.275c15.406-6.06,31.549-11.252,48.559-15.34
				C437.577-2429.993,452.379-2422.224,465.813-2413.89z M344.431-2458.57c18.167,2.694,35.492,6.888,51.792,12.211
				c-13.96,4.233-27.367,9.149-40.198,14.657c-11.646-6.599-24.081-12.856-37.227-18.758
				C327.079-2453.339,335.598-2456.047,344.431-2458.57z M300.21-2461.844c1.025,0,2.077,0.04,3.102,0.053
				c-1.998,0.776-3.996,1.551-5.994,2.327c-1.919-0.736-3.917-1.433-5.836-2.143C294.348-2461.699,297.266-2461.844,300.21-2461.844
				z M251.363-2457.9c8.387,2.34,16.589,4.863,24.502,7.559c-12.961,5.915-25.212,12.198-36.702,18.797
				c-12.172-5.14-24.87-9.74-38.042-13.71C216.949-2450.644,233.722-2455.021,251.363-2457.9z M176.121-2435.632
				c16.116,3.877,31.417,8.754,46.034,14.394c-14.381,9.148-27.526,18.666-39.461,28.301c-15.8-7.585-32.547-14.21-50.346-19.6
				C145.597-2420.883,160.267-2428.718,176.121-2435.632z M57.814-2342.84c1.052-1.788,2.208-3.654,3.549-5.6
				c7.046-10.332,18.114-22.82,32.547-35.519c6.415-5.626,13.54-11.278,21.243-16.878c19.139,4.995,37.174,11.515,54.105,19.192
				c-9.175,8.045-17.562,16.037-25.134,23.845c-33.704,34.651-52.187,65.41-58.759,77.346c-2.051-1.814-3.943-3.497-5.652-5.074
				c-7.729-7.046-13.355-16.405-16.983-26.028c-3.655-9.596-5.231-19.402-5.18-26.5C57.525-2339.87,57.656-2341.474,57.814-2342.84z
				 M44.958-2298.936c4.575,10.358,11.173,20.612,20.428,29.077c14.591,13.33,41.197,36.071,80.159,55.447
				c21.243,10.567,46.192,20.085,74.875,26.605l0.473,0.315l0.158-0.185c23.792,5.363,50.109,8.623,79.055,8.623
				c27.632,0,52.896-2.996,75.873-7.913l0.395,0.553l1.236-0.92c29.576-6.494,55.262-16.274,77.029-27.079
				c38.963-19.376,65.569-42.117,80.16-55.447c9.253-8.465,15.854-18.718,20.428-29.077c0.132,0.709,0.236,1.367,0.394,2.077
				c1.342,7.834,2.603,15.984,3.708,24.081c-1.105,3.366-2.394,6.757-3.997,10.096c-3.838,8.097-9.096,15.696-15.747,21.821
				c-15.116,13.775-42.17,36.885-81.816,56.629c-39.672,19.665-91.91,35.966-157.662,35.991
				c-65.778-0.025-117.991-16.326-157.689-35.991c-39.672-19.744-66.672-42.854-81.789-56.629
				c-6.31-5.784-11.358-12.908-15.143-20.533c-1.841-3.681-3.339-7.466-4.627-11.252
				C42.093-2281.505,43.459-2290.418,44.958-2298.936z M563.534-2184.469c-2.366,5.731-6.021,12.095-10.78,18.404
				c-1.418,1.893-4.783,5.573-9.543,9.964c-8.359,7.677-21.059,17.851-37.069,28.552c-23.977,16.089-55.367,33.546-90.964,46.849
				c-35.598,13.356-75.4,22.557-116.387,22.557c-62.439,0.054-121.54-21.427-167.048-46.033
				c-22.742-12.305-42.091-25.317-56.656-36.649c-7.335-5.626-13.435-10.805-18.14-15.248c-4.706-4.338-8.045-8.02-9.491-9.99
				c-4.759-6.31-8.439-12.673-10.805-18.404c-2.393-5.73-3.444-10.805-3.392-14.196c0-0.684,0.026-1.235,0.105-1.761v-0.264
				l0.053-0.263c0,0,0-0.315,0.053-0.999c0.289-3.68,1.262-16.904,3.023-34.071c2.944,3.785,6.152,7.465,9.833,10.831
				c15.774,14.381,44.536,38.988,86.653,59.916c42.143,20.953,97.8,38.251,167.127,38.251c69.301,0,124.957-17.271,167.075-38.251
				c42.168-20.928,70.904-45.535,86.704-59.916c3.654-3.392,6.89-7.071,9.833-10.884c0.106,1.156,0.236,2.392,0.343,3.522
				c0.92,9.28,1.604,17.221,2.102,22.794c0.211,2.812,0.344,5.021,0.474,6.52c0.132,1.524,0.157,2.287,0.157,2.287l0.027,0.263
				l0.025,0.264c0.054,0.525,0.106,1.077,0.106,1.761C566.979-2195.273,565.926-2190.199,563.534-2184.469z"/>
		</g>
	</g>
</g>
</svg>
