<?xml version="1.0" encoding="utf-8"?>
<!-- Generator: Adobe Illustrator 16.0.0, SVG Export Plug-In . SVG Version: 6.00 Build 0)  -->
<!DOCTYPE svg PUBLIC "-//W3C//DTD SVG 1.1//EN" "http://www.w3.org/Graphics/SVG/1.1/DTD/svg11.dtd">
<svg version="1.1" xmlns="http://www.w3.org/2000/svg" xmlns:xlink="http://www.w3.org/1999/xlink" x="0px" y="0px" width="600px"
	 height="600px" viewBox="0 0 600 600" enable-background="new 0 0 600 600" xml:space="preserve">
<g id="レイヤー_8">
	<g id="icon_12958_1_" transform="translate(0,1536)">
		<g>
			<path fill="#FFF" d="M119.927-1451.067c-6.515-0.013-12.226-2.572-16.538-6.845c-4.247-4.299-6.832-10.023-6.845-16.551
				c0.013-6.501,2.598-12.239,6.832-16.538c4.312-4.26,10.036-6.818,16.551-6.845h402.638V-1536H119.927
				c-33.986,0.013-61.523,27.55-61.537,61.536v476.848c0.013,34.026,27.55,61.563,61.537,61.616h421.682v-515.068H119.927z
				 M503.469-974.192H134.052v-438.721h369.417V-974.192z"/>
			<path fill="#FFF" d="M448.605-1040.978v-319.486H191.117v333.835h257.488V-1040.978z M420.013-1055.274h-200.29v-276.571
				h200.29V-1055.274z"/>
			<rect x="262.65" y="-1133.981" fill="#FFF" width="114.475" height="21.523"/>
		</g>
	</g>
</g>
</svg>
