<?xml version="1.0" encoding="utf-8"?>
<!-- Generator: Adobe Illustrator 16.0.0, SVG Export Plug-In . SVG Version: 6.00 Build 0)  -->
<!DOCTYPE svg PUBLIC "-//W3C//DTD SVG 1.1//EN" "http://www.w3.org/Graphics/SVG/1.1/DTD/svg11.dtd">
<svg version="1.1" xmlns="http://www.w3.org/2000/svg" xmlns:xlink="http://www.w3.org/1999/xlink" x="0px" y="0px" width="600px"
	 height="600px" viewBox="0 0 600 600" enable-background="new 0 0 600 600" xml:space="preserve">
<g id="レイヤー_5">
	<g>
		<path fill="#FFF" d="M584.786,246.817l-39.248-63.228c-13.457-21.378-36.434-34.274-61.7-34.274h-185.34
			c-31.161,0-61.032,12.443-82.864,34.68l-52.896,53.875l-124.88,29.145c-21.067,4.903-34.691,23.621-34.691,45.214v49.509
			c0,10.663,6.156,20.256,16.845,20.256h67.045c-0.096,0-0.214,2.195-0.214,3.531c0,34.835,28.273,62.845,63.156,62.845
			c34.834,0,63.108-27.891,63.108-62.726c0-1.337-0.143-3.65-0.239-3.65h198.487c-0.12,0-0.239,2.195-0.239,3.531
			c0,34.835,28.297,62.845,63.109,62.845c34.882,0,63.132-27.891,63.132-62.726c0-1.337-0.12-3.65-0.191-3.65h43.019
			c10.689,0,17.202-9.593,17.202-20.256v-67.595C597.384,277.394,593.71,261.002,584.786,246.817z M149.997,410.194
			c-13.91,0-25.148-11.262-25.148-25.123c0-13.863,11.238-25.125,25.148-25.125c13.862,0,25.124,11.262,25.124,25.125
			C175.12,398.933,163.859,410.194,149.997,410.194z M309.592,253.391H195.95l43.495-46.514
			c15.461-15.747,36.982-26.949,59.053-26.949h10.951v73.463H309.592z M438.123,253.391h-98.016v-73.463h98.016V253.391z
			 M474.223,410.194c-13.839,0-25.125-11.262-25.125-25.123c0-13.863,11.286-25.125,25.125-25.125
			c13.909,0,25.147,11.262,25.147,25.125C499.37,398.933,488.132,410.194,474.223,410.194z M468.734,253.391v-73.463h15.104
			c13.909,0,26.626,9.198,33.998,20.949l31.639,52.514H468.734L468.734,253.391z"/>
	</g>
</g>
</svg>
