<?xml version="1.0" encoding="utf-8"?>
<!-- Generator: Adobe Illustrator 16.0.0, SVG Export Plug-In . SVG Version: 6.00 Build 0)  -->
<!DOCTYPE svg PUBLIC "-//W3C//DTD SVG 1.1//EN" "http://www.w3.org/Graphics/SVG/1.1/DTD/svg11.dtd">
<svg version="1.1" xmlns="http://www.w3.org/2000/svg" xmlns:xlink="http://www.w3.org/1999/xlink" x="0px" y="0px" width="600px"
	 height="600px" viewBox="0 0 600 600" enable-background="new 0 0 600 600" xml:space="preserve">
<g id="レイヤー_11">
	<g id="icon_11930_1_" transform="translate(0,1024)">
		<g>
			<path fill="#FFF" d="M448.608-671.13C430.14-606.434,370.613-559.045,300-559.045S169.86-606.434,151.392-671.13H0.544
				v185.463h598.912V-671.13H448.608z"/>
			<rect x="39.168" y="-730.532" fill="#FFF" width="521.636" height="26.1"/>
			<path fill="#FFF" d="M412.473-672.568H187.527c3.346,9.346,7.88,18.082,13.354,26.101h198.209
				C404.593-654.486,409.127-663.223,412.473-672.568z"/>
			<path fill="#FFF" d="M367.102-614.617H232.843c19.381,13.216,42.605,20.791,67.13,20.791
				C324.496-593.826,347.748-601.401,367.102-614.617z"/>
			<rect x="39.168" y="-788.482" fill="#FFF" width="521.636" height="26.072"/>
			<rect x="39.168" y="-846.405" fill="#FFF" width="521.636" height="26.045"/>
			<rect x="39.168" y="-904.411" fill="#FFF" width="521.636" height="26.101"/>
			<rect x="39.168" y="-962.333" fill="#FFF" width="521.636" height="26.044"/>
		</g>
	</g>
</g>
</svg>
