<?xml version="1.0" encoding="utf-8"?>
<!-- Generator: Adobe Illustrator 16.0.0, SVG Export Plug-In . SVG Version: 6.00 Build 0)  -->
<!DOCTYPE svg PUBLIC "-//W3C//DTD SVG 1.1//EN" "http://www.w3.org/Graphics/SVG/1.1/DTD/svg11.dtd">
<svg version="1.1" xmlns="http://www.w3.org/2000/svg" xmlns:xlink="http://www.w3.org/1999/xlink" x="0px" y="0px" width="600px"
	 height="600px" viewBox="0 0 600 600" enable-background="new 0 0 600 600" xml:space="preserve">
<g id="レイヤー_2" display="none">
	<g display="inline">
		<polygon fill="#FF0606" points="116.854,511.098 154.609,550.869 291.867,420.558 252.041,382.747 		"/>
		<path fill="#FF0606" d="M577.232,111.805c-38.525-40.578-110.353-34.933-156.209,8.596
			c-27.878,26.484-40.047,62.957-40.139,93.527c-0.073,26.851-2.235,45.343-23.075,68.418l-27.309,25.934l39.81,37.811
			l25.256-23.991c24.102-19.612,42.704-20.82,69.499-19.501c30.535,1.485,67.612-8.761,95.507-35.245
			C606.392,223.825,615.775,152.384,577.232,111.805z"/>
		<path fill="#FF0606" d="M258.216,229.654c2.62-28.738,1.265-48.936-40.504-88.304c0,0-47.854-45.434-74.924-71.148
			c-22.635-21.48-54.765,10.795-31.616,32.789l78.499,74.503c5.004,4.766,5.206,12.684,0.459,17.687l-2.31,2.438
			c-4.748,5.004-12.684,5.206-17.687,0.44l-78.847-74.834c-12.939-12.298-25.073-7.259-32.99,1.081
			c-7.918,8.357-12.316,20.71,0.623,33.009l78.847,74.852c5.022,4.747,5.206,12.683,0.459,17.686l-2.31,2.42
			c-4.766,5.022-12.684,5.224-17.687,0.477l-78.48-74.521c-23.167-21.993-53.719,11.767-31.084,33.229
			c27.07,25.733,74.924,71.167,74.924,71.167c41.476,39.68,61.71,39.993,90.284,35.868c23.001-3.317,39.735-8.944,65.65,15.688
			L467.761,550.87l37.757-39.755L277.28,294.407C251.344,269.792,256.108,252.802,258.216,229.654z"/>
	</g>
</g>
<g id="レイヤー_1" display="none">
	<g display="inline">
		<polygon fill="#00A29A" points="409.955,83.437 300.327,169.745 190.711,83.437 1.397,229.9 90.767,340.564 146.92,299.238 
			146.92,516.563 452.71,516.563 452.71,299.238 509.375,340.564 598.602,229.9 		"/>
	</g>
</g>
<g id="レイヤー_3" display="none">
	<g display="inline">
		<polygon fill="#F39800" points="373.222,386.706 327.017,294.84 272.948,458.006 199.926,209.551 165.789,340.302 78.453,340.302 
			299.981,561.867 521.548,340.302 418.121,340.302 		"/>
		<path fill="#F39800" d="M552.786,96.231c-58.781-58.798-154.089-58.798-212.87,0c-20.367,20.367-33.665,45.1-39.936,71.192
			c-6.233-26.092-19.533-50.825-39.899-71.192c-58.78-58.798-154.088-58.798-212.869,0c-58.78,58.761-58.78,154.088,0,212.85
			l4.167,4.168h93.497l53.489-204.914l76.139,258.982l47.4-142.962l58.383,116.146l26.382-27.252h141.947l4.169-4.168
			C611.565,250.32,611.565,154.993,552.786,96.231z"/>
	</g>
</g>
<g id="レイヤー_4" display="none">
	<g display="inline">
		<polygon fill="#920783" points="19.551,600.369 -0.523,580.265 53.714,526.057 73.85,546.131 		"/>
		<polygon fill="#920783" points="-0.342,580.053 53.896,526.238 73.638,546.343 19.581,600.006 		"/>
		<path fill="#920783" d="M309.03,172.801L50.479,483.579l65.847,65.787l310.93-258.37L309.03,172.801z M116.326,549.366
			l310.93-258.37"/>
		<path fill="#920783" d="M50.69,483.398l258.552-310.4l117.771,118.18L116.326,548.974L50.69,483.398z"/>
		<path fill="#920783" d="M320.187,141.042L459.03,279.825c34.647,0.394,69.354-12.244,96.533-37.428L357.6,44.554
			C332.415,71.732,319.793,106.41,320.187,141.042z"/>
		<path fill="#920783" d="M459.03,281.02L320.397,141.586c-0.332-35.493,12.925-70.05,37.443-96.458l197.512,198.403
			c-25.971,23.657-59.619,37.488-94.72,37.488H459.03z"/>
		<path fill="#920783" d="M559.524,40.593C512.875-6.057,441.556-12.798,387.561,20.05l192.522,192.401
			C612.977,158.501,606.204,87.212,559.524,40.593z"/>
		<path fill="#920783" d="M387.771,19.838C409.63,6.944,434.845-0.085,460.572-0.085c37.308,0,72.378,14.512,98.771,40.875
			c45.651,45.636,54.147,115.987,20.71,171.224L387.771,19.838z"/>
	</g>
</g>
<g id="レイヤー_5" display="none">
	<g display="inline">
		<path fill="#171C61" d="M584.786,246.817l-39.248-63.228c-13.457-21.378-36.434-34.274-61.7-34.274h-185.34
			c-31.161,0-61.032,12.443-82.864,34.68l-52.896,53.875l-124.88,29.145c-21.067,4.903-34.691,23.621-34.691,45.214v49.509
			c0,10.663,6.156,20.256,16.845,20.256h67.045c-0.096,0-0.214,2.195-0.214,3.531c0,34.835,28.273,62.845,63.156,62.845
			c34.834,0,63.108-27.891,63.108-62.726c0-1.337-0.143-3.65-0.239-3.65h198.487c-0.12,0-0.239,2.195-0.239,3.531
			c0,34.835,28.297,62.845,63.109,62.845c34.882,0,63.132-27.891,63.132-62.726c0-1.337-0.12-3.65-0.191-3.65h43.019
			c10.689,0,17.202-9.593,17.202-20.256v-67.595C597.384,277.394,593.71,261.002,584.786,246.817z M149.997,410.194
			c-13.91,0-25.148-11.262-25.148-25.123c0-13.863,11.238-25.125,25.148-25.125c13.862,0,25.124,11.262,25.124,25.125
			C175.12,398.933,163.859,410.194,149.997,410.194z M309.592,253.391H195.95l43.495-46.514
			c15.461-15.747,36.982-26.949,59.053-26.949h10.951v73.463H309.592z M438.123,253.391h-98.016v-73.463h98.016V253.391z
			 M474.223,410.194c-13.839,0-25.125-11.262-25.125-25.123c0-13.863,11.286-25.125,25.125-25.125
			c13.909,0,25.147,11.262,25.147,25.125C499.37,398.933,488.132,410.194,474.223,410.194z M468.734,253.391v-73.463h15.104
			c13.909,0,26.626,9.198,33.998,20.949l31.639,52.514H468.734L468.734,253.391z"/>
	</g>
</g>
<g id="レイヤー_6" display="none">
	<g id="icon_11212_1_" transform="translate(0,512)" display="inline">
		<g>
			<polygon fill="#E4007F" points="516.618,-256.123 403.146,-369.595 300,-472.741 196.854,-369.595 83.356,-256.071 
				2.716,-175.457 49.166,-129.033 129.78,-209.621 243.277,-323.145 300,-379.868 356.723,-323.145 470.168,-209.699 
				550.86,-129.033 597.284,-175.457 			"/>
			<polygon fill="#E4007F" points="102.255,-125.635 102.255,48.741 321.774,48.741 321.774,-89.432 401.709,-89.432 
				401.709,48.741 497.745,48.741 497.745,-125.688 300.026,-323.406 			"/>
		</g>
	</g>
</g>
<g id="レイヤー_7" display="none">
	<g id="icon_13964_1_" transform="translate(0,2048)" display="inline">
		<g>
			<path fill="#006934" d="M457.721-1765.646h-187.02v-19.84l-112.375-128.777v-61.181h42.802v-32.092h-42.802v-40.142h-32.119
				v40.142h-42.79v32.092h42.803v61.207l-112.362,128.75v337.164h97.646v-98.646c0-16.969,13.792-30.775,30.774-30.775
				c16.981,0,30.748,13.807,30.748,30.775v98.646h78.438h19.234v-162.409h23.187v162.409h163.833h128.42v-170.156L457.721-1765.646z
				 M404.55-1502.494h-46.373v-55.7h46.373V-1502.494z M501.985-1502.494H455.56v-55.7h46.426V-1502.494z"/>
		</g>
	</g>
</g>
<g id="レイヤー_8" display="none">
	<g id="icon_12958_1_" transform="translate(0,1536)" display="inline">
		<g>
			<path fill="#EA5514" d="M119.927-1451.067c-6.515-0.013-12.226-2.572-16.538-6.845c-4.247-4.299-6.832-10.023-6.845-16.551
				c0.013-6.501,2.598-12.239,6.832-16.538c4.312-4.26,10.036-6.818,16.551-6.845h402.638V-1536H119.927
				c-33.986,0.013-61.523,27.55-61.537,61.536v476.848c0.013,34.026,27.55,61.563,61.537,61.616h421.682v-515.068H119.927z
				 M503.469-974.192H134.052v-438.721h369.417V-974.192z"/>
			<path fill="#EA5514" d="M448.605-1040.978v-319.486H191.117v333.835h257.488V-1040.978z M420.013-1055.274h-200.29v-276.571
				h200.29V-1055.274z"/>
			<rect x="262.65" y="-1133.981" fill="#EA5514" width="114.475" height="21.523"/>
		</g>
	</g>
</g>
<g id="レイヤー_9">
	<g id="icon_15827_1_" transform="translate(0,3072)">
		<g>
			<path fill="#2EA7E0" d="M532.203-2845.32c-4.222,3.773-8.655,7.335-13.352,10.66c-10.818,7.678-16.676,11.9-20.37,15.093
				c10.818,24.143,17.415,50.502,18.734,78.379h-77.839h-20.634h-108.38v-131.204H289.65h-82.43
				c3.246-7.731,6.729-15.093,10.449-21.953c11.161-20.581,24.328-36.888,38.365-47.785c1.056-0.831,2.111-1.557,3.167-2.322
				c6.438-1.214,12.956-2.058,19.578-2.705c-0.396-4.38-0.66-8.773-0.66-13.18c0-9.789,0.95-19.354,2.718-28.629
				c-63.801,4.644-121.349,32.455-163.936,75.042c-46.809,46.783-75.833,111.639-75.807,183.08
				c-0.026,71.453,28.998,136.257,75.807,183.065c46.783,46.861,111.666,75.886,183.066,75.886
				c71.439,0,136.297-29.024,183.105-75.886c46.809-46.809,75.833-111.612,75.833-183.065
				C558.905-2771.914,549.301-2810.78,532.203-2845.32z M146.216-2884.622c20.265-20.238,44.408-36.439,71.269-47.455
				c-12.771,16.557-23.668,36.809-32.534,59.685h-50.001C138.564-2876.587,142.284-2880.703,146.216-2884.622z M119.144-2851.652
				h58.55c-10.185,32.956-16.228,70.53-17.125,110.465H82.784C84.684-2782.02,97.824-2819.778,119.144-2851.652z M110.7-2623.823
				c-16.333-28.76-26.28-61.584-27.916-96.678h77.838c0.818,34.513,5.409,67.179,13.272,96.678H110.7z M146.216-2577.067
				c-8.074-8.073-15.462-16.781-22.217-26.016h56.097c5.488,16.465,11.926,31.874,19.367,45.595
				c5.541,10.185,11.557,19.473,18.074,27.916C190.676-2540.602,166.48-2556.803,146.216-2577.067z M289.65-2513.635
				c-10.37-0.476-20.528-1.689-30.449-3.589c-1.056-0.792-2.111-1.478-3.167-2.322c-21.056-16.307-40.106-44.961-53.511-81.69
				c-0.237-0.581-0.422-1.267-0.66-1.847h87.786V-2513.635z M289.65-2623.823h-94.356c-8.206-29.024-13.193-61.796-14.011-96.678
				H289.65V-2623.823z M289.65-2741.188H181.204c0.95-40.489,7.573-78.248,18.233-110.465h90.213V-2741.188L289.65-2741.188z
				 M310.363-2720.501h108.433c-0.845,34.882-5.857,67.653-14.037,96.678h-94.396V-2720.501z M343.965-2519.546
				c-1.055,0.845-2.11,1.53-3.166,2.322c-9.921,1.899-20.093,3.113-30.436,3.589v-89.448h87.799
				c-4.644,12.929-9.974,24.908-15.832,35.727C371.143-2546.723,358.003-2530.47,343.965-2519.546z M453.784-2577.067
				c-20.265,20.265-44.435,36.466-71.296,47.495c13.722-17.731,25.278-39.632,34.408-64.54c1.107-2.902,2.11-5.963,3.061-8.971
				h55.991C469.246-2593.849,461.857-2585.141,453.784-2577.067z M489.299-2623.823h-63.062
				c7.811-29.499,12.401-62.165,13.193-96.678h77.786C515.58-2685.407,505.605-2652.583,489.299-2623.823z"/>
			<path fill="#2EA7E0" d="M367.713-2868.434c26.333,18.681,32.138,23.14,41.426,40.845c7.335,13.985,19.209,38.523,19.209,38.523
				c0.58,1.135,1.688,1.847,2.955,1.847c1.214,0,2.428-0.712,2.955-1.847c0,0,11.874-24.539,19.209-38.523
				c9.235-17.705,15.093-22.164,41.426-40.845c28.866-20.489,48.182-53.828,48.182-91.902c0-61.73-50.081-111.771-111.771-111.771
				c-61.743,0-111.758,50.041-111.758,111.771C319.545-2922.261,338.847-2888.922,367.713-2868.434z M431.303-3007.606
				c26.122,0,47.284,21.162,47.284,47.271s-21.162,47.271-47.284,47.271s-47.283-21.162-47.283-47.271
				S405.181-3007.606,431.303-3007.606z"/>
		</g>
	</g>
</g>
</svg>
