<?xml version="1.0" encoding="utf-8"?>
<!-- Generator: Adobe Illustrator 16.0.0, SVG Export Plug-In . SVG Version: 6.00 Build 0)  -->
<!DOCTYPE svg PUBLIC "-//W3C//DTD SVG 1.1//EN" "http://www.w3.org/Graphics/SVG/1.1/DTD/svg11.dtd">
<svg version="1.1" xmlns="http://www.w3.org/2000/svg" xmlns:xlink="http://www.w3.org/1999/xlink" x="0px" y="0px" width="600px"
	 height="600px" viewBox="0 0 600 600" enable-background="new 0 0 600 600" xml:space="preserve">
<g id="レイヤー_12">
	<g id="icon_00085_1_" transform="translate(0,0)">
		<g>
			<path fill="#FFF" d="M375.896-0.297L43.168,81.789v489.836l332.41,28.674l181.256-30.839V73.102L375.896-0.297z
				 M340.277,553.037l-108.594-9.346v-93.149l-64.607-0.845v88.449l-79.895-6.865V116.244l253.096-62.416V553.037z"/>
			<polygon fill="#FFF" points="317.862,89.947 265.426,100.957 265.426,162.687 317.862,153.683 			"/>
			<polygon fill="#FFF" points="138.799,131.135 102.257,138.845 102.257,193.05 138.799,186.739 			"/>
			<polygon fill="#FFF" points="222.601,112.231 176.132,121.974 176.132,179.214 222.601,171.188 			"/>
			<polygon fill="#FFF" points="138.799,238.04 102.257,243.03 102.257,297.288 138.799,293.67 			"/>
			<polygon fill="#FFF" points="222.601,225.842 176.132,232.125 176.132,289.393 222.601,284.799 			"/>
			<polygon fill="#FFF" points="317.862,212.06 265.426,219.162 265.426,279.941 317.862,274.766 			"/>
			<polygon fill="#FFF" points="317.862,335.32 265.426,338.595 265.426,399.321 317.862,398.054 			"/>
			<polygon fill="#FFF" points="222.601,341.604 176.132,344.456 176.132,401.697 222.601,400.535 			"/>
			<polygon fill="#FFF" points="138.799,347.148 102.257,349.42 102.257,403.651 138.799,402.753 			"/>
		</g>
	</g>
</g>
</svg>
