<?xml version="1.0" encoding="utf-8"?>
<!-- Generator: Adobe Illustrator 16.0.0, SVG Export Plug-In . SVG Version: 6.00 Build 0)  -->
<!DOCTYPE svg PUBLIC "-//W3C//DTD SVG 1.1//EN" "http://www.w3.org/Graphics/SVG/1.1/DTD/svg11.dtd">
<svg version="1.1" xmlns="http://www.w3.org/2000/svg" xmlns:xlink="http://www.w3.org/1999/xlink" x="0px" y="0px" width="600px"
	 height="600px" viewBox="0 0 600 600" enable-background="new 0 0 600 600" xml:space="preserve">
<g id="レイヤー_7">
	<g id="icon_13964_1_" transform="translate(0,2048)">
		<g>
			<path fill="#FFF" d="M457.721-1765.646h-187.02v-19.84l-112.375-128.777v-61.181h42.802v-32.092h-42.802v-40.142h-32.119
				v40.142h-42.79v32.092h42.803v61.207l-112.362,128.75v337.164h97.646v-98.646c0-16.969,13.792-30.775,30.774-30.775
				c16.981,0,30.748,13.807,30.748,30.775v98.646h78.438h19.234v-162.409h23.187v162.409h163.833h128.42v-170.156L457.721-1765.646z
				 M404.55-1502.494h-46.373v-55.7h46.373V-1502.494z M501.985-1502.494H455.56v-55.7h46.426V-1502.494z"/>
		</g>
	</g>
</g>
</svg>
