<?xml version="1.0" encoding="utf-8"?>
<!-- Generator: Adobe Illustrator 16.0.0, SVG Export Plug-In . SVG Version: 6.00 Build 0)  -->
<!DOCTYPE svg PUBLIC "-//W3C//DTD SVG 1.1//EN" "http://www.w3.org/Graphics/SVG/1.1/DTD/svg11.dtd">
<svg version="1.1" xmlns="http://www.w3.org/2000/svg" xmlns:xlink="http://www.w3.org/1999/xlink" x="0px" y="0px" width="600px"
	 height="600px" viewBox="0 0 600 600" enable-background="new 0 0 600 600" xml:space="preserve">
<g id="レイヤー_9">
	<g id="icon_15827_1_" transform="translate(0,3072)">
		<g>
			<path fill="#FFF" d="M532.203-2845.32c-4.222,3.773-8.655,7.335-13.352,10.66c-10.818,7.678-16.676,11.9-20.37,15.093
				c10.818,24.143,17.415,50.502,18.734,78.379h-77.839h-20.634h-108.38v-131.204H289.65h-82.43
				c3.246-7.731,6.729-15.093,10.449-21.953c11.161-20.581,24.328-36.888,38.365-47.785c1.056-0.831,2.111-1.557,3.167-2.322
				c6.438-1.214,12.956-2.058,19.578-2.705c-0.396-4.38-0.66-8.773-0.66-13.18c0-9.789,0.95-19.354,2.718-28.629
				c-63.801,4.644-121.349,32.455-163.936,75.042c-46.809,46.783-75.833,111.639-75.807,183.08
				c-0.026,71.453,28.998,136.257,75.807,183.065c46.783,46.861,111.666,75.886,183.066,75.886
				c71.439,0,136.297-29.024,183.105-75.886c46.809-46.809,75.833-111.612,75.833-183.065
				C558.905-2771.914,549.301-2810.78,532.203-2845.32z M146.216-2884.622c20.265-20.238,44.408-36.439,71.269-47.455
				c-12.771,16.557-23.668,36.809-32.534,59.685h-50.001C138.564-2876.587,142.284-2880.703,146.216-2884.622z M119.144-2851.652
				h58.55c-10.185,32.956-16.228,70.53-17.125,110.465H82.784C84.684-2782.02,97.824-2819.778,119.144-2851.652z M110.7-2623.823
				c-16.333-28.76-26.28-61.584-27.916-96.678h77.838c0.818,34.513,5.409,67.179,13.272,96.678H110.7z M146.216-2577.067
				c-8.074-8.073-15.462-16.781-22.217-26.016h56.097c5.488,16.465,11.926,31.874,19.367,45.595
				c5.541,10.185,11.557,19.473,18.074,27.916C190.676-2540.602,166.48-2556.803,146.216-2577.067z M289.65-2513.635
				c-10.37-0.476-20.528-1.689-30.449-3.589c-1.056-0.792-2.111-1.478-3.167-2.322c-21.056-16.307-40.106-44.961-53.511-81.69
				c-0.237-0.581-0.422-1.267-0.66-1.847h87.786V-2513.635z M289.65-2623.823h-94.356c-8.206-29.024-13.193-61.796-14.011-96.678
				H289.65V-2623.823z M289.65-2741.188H181.204c0.95-40.489,7.573-78.248,18.233-110.465h90.213V-2741.188L289.65-2741.188z
				 M310.363-2720.501h108.433c-0.845,34.882-5.857,67.653-14.037,96.678h-94.396V-2720.501z M343.965-2519.546
				c-1.055,0.845-2.11,1.53-3.166,2.322c-9.921,1.899-20.093,3.113-30.436,3.589v-89.448h87.799
				c-4.644,12.929-9.974,24.908-15.832,35.727C371.143-2546.723,358.003-2530.47,343.965-2519.546z M453.784-2577.067
				c-20.265,20.265-44.435,36.466-71.296,47.495c13.722-17.731,25.278-39.632,34.408-64.54c1.107-2.902,2.11-5.963,3.061-8.971
				h55.991C469.246-2593.849,461.857-2585.141,453.784-2577.067z M489.299-2623.823h-63.062
				c7.811-29.499,12.401-62.165,13.193-96.678h77.786C515.58-2685.407,505.605-2652.583,489.299-2623.823z"/>
			<path fill="#FFF" d="M367.713-2868.434c26.333,18.681,32.138,23.14,41.426,40.845c7.335,13.985,19.209,38.523,19.209,38.523
				c0.58,1.135,1.688,1.847,2.955,1.847c1.214,0,2.428-0.712,2.955-1.847c0,0,11.874-24.539,19.209-38.523
				c9.235-17.705,15.093-22.164,41.426-40.845c28.866-20.489,48.182-53.828,48.182-91.902c0-61.73-50.081-111.771-111.771-111.771
				c-61.743,0-111.758,50.041-111.758,111.771C319.545-2922.261,338.847-2888.922,367.713-2868.434z M431.303-3007.606
				c26.122,0,47.284,21.162,47.284,47.271s-21.162,47.271-47.284,47.271s-47.283-21.162-47.283-47.271
				S405.181-3007.606,431.303-3007.606z"/>
		</g>
	</g>
</g>
</svg>
