<?xml version="1.0" encoding="utf-8"?>
<!-- Generator: Adobe Illustrator 16.0.0, SVG Export Plug-In . SVG Version: 6.00 Build 0)  -->
<!DOCTYPE svg PUBLIC "-//W3C//DTD SVG 1.1//EN" "http://www.w3.org/Graphics/SVG/1.1/DTD/svg11.dtd">
<svg version="1.1" xmlns="http://www.w3.org/2000/svg" xmlns:xlink="http://www.w3.org/1999/xlink" x="0px" y="0px" width="600px"
	 height="600px" viewBox="0 0 600 600" enable-background="new 0 0 600 600" xml:space="preserve">
<g id="レイヤー_1" display="none">
	<g display="inline">
		<polygon fill="#FFF" points="409.955,83.437 300.327,169.745 190.711,83.437 1.397,229.9 90.767,340.564 146.92,299.238 
			146.92,516.563 452.71,516.563 452.71,299.238 509.375,340.564 598.602,229.9 		"/>
	</g>
</g>
<g id="レイヤー_2">
	<g>
		<polygon fill="#FFF" points="116.854,511.098 154.609,550.869 291.867,420.558 252.041,382.747 		"/>
		<path fill="#FFF" d="M577.232,111.805c-38.525-40.578-110.353-34.933-156.209,8.596
			c-27.878,26.484-40.047,62.957-40.139,93.527c-0.073,26.851-2.235,45.343-23.075,68.418l-27.309,25.934l39.81,37.811
			l25.256-23.991c24.102-19.612,42.704-20.82,69.499-19.501c30.535,1.485,67.612-8.761,95.507-35.245
			C606.392,223.825,615.775,152.384,577.232,111.805z"/>
		<path fill="#FFF" d="M258.216,229.654c2.62-28.738,1.265-48.936-40.504-88.304c0,0-47.854-45.434-74.924-71.148
			c-22.635-21.48-54.765,10.795-31.616,32.789l78.499,74.503c5.004,4.766,5.206,12.684,0.459,17.687l-2.31,2.438
			c-4.748,5.004-12.684,5.206-17.687,0.44l-78.847-74.834c-12.939-12.298-25.073-7.259-32.99,1.081
			c-7.918,8.357-12.316,20.71,0.623,33.009l78.847,74.852c5.022,4.747,5.206,12.683,0.459,17.686l-2.31,2.42
			c-4.766,5.022-12.684,5.224-17.687,0.477l-78.48-74.521c-23.167-21.993-53.719,11.767-31.084,33.229
			c27.07,25.733,74.924,71.167,74.924,71.167c41.476,39.68,61.71,39.993,90.284,35.868c23.001-3.317,39.735-8.944,65.65,15.688
			L467.761,550.87l37.757-39.755L277.28,294.407C251.344,269.792,256.108,252.802,258.216,229.654z"/>
	</g>
</g>
</svg>
