<?xml version="1.0" encoding="utf-8"?>
<!-- Generator: Adobe Illustrator 16.0.0, SVG Export Plug-In . SVG Version: 6.00 Build 0)  -->
<!DOCTYPE svg PUBLIC "-//W3C//DTD SVG 1.1//EN" "http://www.w3.org/Graphics/SVG/1.1/DTD/svg11.dtd">
<svg version="1.1" xmlns="http://www.w3.org/2000/svg" xmlns:xlink="http://www.w3.org/1999/xlink" x="0px" y="0px" width="600px"
	 height="600px" viewBox="0 0 600 600" enable-background="new 0 0 600 600" xml:space="preserve">
<g id="レイヤー_2" display="none">
	<g display="inline">
		<polygon fill="#FF0606" points="116.854,511.098 154.609,550.869 291.867,420.558 252.041,382.747 		"/>
		<path fill="#FF0606" d="M577.232,111.805c-38.525-40.578-110.353-34.933-156.209,8.596
			c-27.878,26.484-40.047,62.957-40.139,93.527c-0.073,26.851-2.235,45.343-23.075,68.418l-27.309,25.934l39.81,37.811
			l25.256-23.991c24.102-19.612,42.704-20.82,69.499-19.501c30.535,1.485,67.612-8.761,95.507-35.245
			C606.392,223.825,615.775,152.384,577.232,111.805z"/>
		<path fill="#FF0606" d="M258.216,229.654c2.62-28.738,1.265-48.936-40.504-88.304c0,0-47.854-45.434-74.924-71.148
			c-22.635-21.48-54.765,10.795-31.616,32.789l78.499,74.503c5.004,4.766,5.206,12.684,0.459,17.687l-2.31,2.438
			c-4.748,5.004-12.684,5.206-17.687,0.44l-78.847-74.834c-12.939-12.298-25.073-7.259-32.99,1.081
			c-7.918,8.357-12.316,20.71,0.623,33.009l78.847,74.852c5.022,4.747,5.206,12.683,0.459,17.686l-2.31,2.42
			c-4.766,5.022-12.684,5.224-17.687,0.477l-78.48-74.521c-23.167-21.993-53.719,11.767-31.084,33.229
			c27.07,25.733,74.924,71.167,74.924,71.167c41.476,39.68,61.71,39.993,90.284,35.868c23.001-3.317,39.735-8.944,65.65,15.688
			L467.761,550.87l37.757-39.755L277.28,294.407C251.344,269.792,256.108,252.802,258.216,229.654z"/>
	</g>
</g>
<g id="レイヤー_1" display="none">
	<g display="inline">
		<polygon fill="#00A29A" points="409.955,83.437 300.327,169.745 190.711,83.437 1.397,229.9 90.767,340.564 146.92,299.238 
			146.92,516.563 452.71,516.563 452.71,299.238 509.375,340.564 598.602,229.9 		"/>
	</g>
</g>
<g id="レイヤー_3" display="none">
	<g display="inline">
		<polygon fill="#F39800" points="373.222,386.706 327.017,294.84 272.948,458.006 199.926,209.551 165.789,340.302 78.453,340.302 
			299.981,561.867 521.548,340.302 418.121,340.302 		"/>
		<path fill="#F39800" d="M552.786,96.231c-58.781-58.798-154.089-58.798-212.87,0c-20.367,20.367-33.665,45.1-39.936,71.192
			c-6.233-26.092-19.533-50.825-39.899-71.192c-58.78-58.798-154.088-58.798-212.869,0c-58.78,58.761-58.78,154.088,0,212.85
			l4.167,4.168h93.497l53.489-204.914l76.139,258.982l47.4-142.962l58.383,116.146l26.382-27.252h141.947l4.169-4.168
			C611.565,250.32,611.565,154.993,552.786,96.231z"/>
	</g>
</g>
<g id="レイヤー_4" display="none">
	<g display="inline">
		<polygon fill="#920783" points="19.551,600.369 -0.523,580.265 53.714,526.057 73.85,546.131 		"/>
		<polygon fill="#920783" points="-0.342,580.053 53.896,526.238 73.638,546.343 19.581,600.006 		"/>
		<path fill="#920783" d="M309.03,172.801L50.479,483.579l65.847,65.787l310.93-258.37L309.03,172.801z M116.326,549.366
			l310.93-258.37"/>
		<path fill="#920783" d="M50.69,483.398l258.552-310.4l117.771,118.18L116.326,548.974L50.69,483.398z"/>
		<path fill="#920783" d="M320.187,141.042L459.03,279.825c34.647,0.394,69.354-12.244,96.533-37.428L357.6,44.554
			C332.415,71.732,319.793,106.41,320.187,141.042z"/>
		<path fill="#920783" d="M459.03,281.02L320.397,141.586c-0.332-35.493,12.925-70.05,37.443-96.458l197.512,198.403
			c-25.971,23.657-59.619,37.488-94.72,37.488H459.03z"/>
		<path fill="#920783" d="M559.524,40.593C512.875-6.057,441.556-12.798,387.561,20.05l192.522,192.401
			C612.977,158.501,606.204,87.212,559.524,40.593z"/>
		<path fill="#920783" d="M387.771,19.838C409.63,6.944,434.845-0.085,460.572-0.085c37.308,0,72.378,14.512,98.771,40.875
			c45.651,45.636,54.147,115.987,20.71,171.224L387.771,19.838z"/>
	</g>
</g>
<g id="レイヤー_5">
	<g>
		<path fill="#171C61" d="M584.786,246.817l-39.248-63.228c-13.457-21.378-36.434-34.274-61.7-34.274h-185.34
			c-31.161,0-61.032,12.443-82.864,34.68l-52.896,53.875l-124.88,29.145c-21.067,4.903-34.691,23.621-34.691,45.214v49.509
			c0,10.663,6.156,20.256,16.845,20.256h67.045c-0.096,0-0.214,2.195-0.214,3.531c0,34.835,28.273,62.845,63.156,62.845
			c34.834,0,63.108-27.891,63.108-62.726c0-1.337-0.143-3.65-0.239-3.65h198.487c-0.12,0-0.239,2.195-0.239,3.531
			c0,34.835,28.297,62.845,63.109,62.845c34.882,0,63.132-27.891,63.132-62.726c0-1.337-0.12-3.65-0.191-3.65h43.019
			c10.689,0,17.202-9.593,17.202-20.256v-67.595C597.384,277.394,593.71,261.002,584.786,246.817z M149.997,410.194
			c-13.91,0-25.148-11.262-25.148-25.123c0-13.863,11.238-25.125,25.148-25.125c13.862,0,25.124,11.262,25.124,25.125
			C175.12,398.933,163.859,410.194,149.997,410.194z M309.592,253.391H195.95l43.495-46.514
			c15.461-15.747,36.982-26.949,59.053-26.949h10.951v73.463H309.592z M438.123,253.391h-98.016v-73.463h98.016V253.391z
			 M474.223,410.194c-13.839,0-25.125-11.262-25.125-25.123c0-13.863,11.286-25.125,25.125-25.125
			c13.909,0,25.147,11.262,25.147,25.125C499.37,398.933,488.132,410.194,474.223,410.194z M468.734,253.391v-73.463h15.104
			c13.909,0,26.626,9.198,33.998,20.949l31.639,52.514H468.734L468.734,253.391z"/>
	</g>
</g>
</svg>
