<?xml version="1.0" encoding="utf-8"?>
<!-- Generator: Adobe Illustrator 16.0.0, SVG Export Plug-In . SVG Version: 6.00 Build 0)  -->
<!DOCTYPE svg PUBLIC "-//W3C//DTD SVG 1.1//EN" "http://www.w3.org/Graphics/SVG/1.1/DTD/svg11.dtd">
<svg version="1.1" xmlns="http://www.w3.org/2000/svg" xmlns:xlink="http://www.w3.org/1999/xlink" x="0px" y="0px" width="600px"
	 height="600px" viewBox="0 0 600 600" enable-background="new 0 0 600 600" xml:space="preserve">
<g id="レイヤー_3">
	<g>
		<polygon fill="#FFF" points="373.222,386.706 327.017,294.84 272.948,458.006 199.926,209.551 165.789,340.302 78.453,340.302 
			299.981,561.867 521.548,340.302 418.121,340.302 		"/>
		<path fill="#FFFF" d="M552.786,96.231c-58.781-58.798-154.089-58.798-212.87,0c-20.367,20.367-33.665,45.1-39.936,71.192
			c-6.233-26.092-19.533-50.825-39.899-71.192c-58.78-58.798-154.088-58.798-212.869,0c-58.78,58.761-58.78,154.088,0,212.85
			l4.167,4.168h93.497l53.489-204.914l76.139,258.982l47.4-142.962l58.383,116.146l26.382-27.252h141.947l4.169-4.168
			C611.565,250.32,611.565,154.993,552.786,96.231z"/>
	</g>
</g>
</svg>