<?xml version="1.0" encoding="utf-8"?>
<!-- Generator: Adobe Illustrator 16.0.0, SVG Export Plug-In . SVG Version: 6.00 Build 0)  -->
<!DOCTYPE svg PUBLIC "-//W3C//DTD SVG 1.1//EN" "http://www.w3.org/Graphics/SVG/1.1/DTD/svg11.dtd">
<svg version="1.1" xmlns="http://www.w3.org/2000/svg" xmlns:xlink="http://www.w3.org/1999/xlink" x="0px" y="0px" width="600px"
	 height="600px" viewBox="0 0 600 600" enable-background="new 0 0 600 600" xml:space="preserve">
<g id="レイヤー_4">
	<g>
		<polygon fill="#FFF" points="19.551,600.369 -0.523,580.265 53.714,526.057 73.85,546.131 		"/>
		<polygon fill="#FFF" points="-0.342,580.053 53.896,526.238 73.638,546.343 19.581,600.006 		"/>
		<path fill="#FFF" d="M309.03,172.801L50.479,483.579l65.847,65.787l310.93-258.37L309.03,172.801z M116.326,549.366
			l310.93-258.37"/>
		<path fill="#FFF" d="M50.69,483.398l258.552-310.4l117.771,118.18L116.326,548.974L50.69,483.398z"/>
		<path fill="#FFF" d="M320.187,141.042L459.03,279.825c34.647,0.394,69.354-12.244,96.533-37.428L357.6,44.554
			C332.415,71.732,319.793,106.41,320.187,141.042z"/>
		<path fill="#FFF" d="M459.03,281.02L320.397,141.586c-0.332-35.493,12.925-70.05,37.443-96.458l197.512,198.403
			c-25.971,23.657-59.619,37.488-94.72,37.488H459.03z"/>
		<path fill="#FFF" d="M559.524,40.593C512.875-6.057,441.556-12.798,387.561,20.05l192.522,192.401
			C612.977,158.501,606.204,87.212,559.524,40.593z"/>
		<path fill="#FFF" d="M387.771,19.838C409.63,6.944,434.845-0.085,460.572-0.085c37.308,0,72.378,14.512,98.771,40.875
			c45.651,45.636,54.147,115.987,20.71,171.224L387.771,19.838z"/>
	</g>
</g>
</svg>
