<?xml version="1.0" encoding="utf-8"?>
<!-- Generator: Adobe Illustrator 16.0.0, SVG Export Plug-In . SVG Version: 6.00 Build 0)  -->
<!DOCTYPE svg PUBLIC "-//W3C//DTD SVG 1.1//EN" "http://www.w3.org/Graphics/SVG/1.1/DTD/svg11.dtd">
<svg version="1.1" id="_x32_" xmlns="http://www.w3.org/2000/svg" xmlns:xlink="http://www.w3.org/1999/xlink" x="0px" y="0px"
	 width="600px" height="600px" viewBox="0 0 600 600" enable-background="new 0 0 600 600" xml:space="preserve">
<g>
	<path fill="#FFFFFF" d="M536.773,197.953h-74.247v-35.19c0-4.097-0.204-8.143-0.503-12.165h0.503
		C456.292,66.513,385.886,0,300.233,0c-0.079,0-0.156,0.007-0.234,0.007c-0.079,0-0.156-0.007-0.234-0.007
		c-85.651,0-156.058,66.513-162.293,150.598h0.501c-0.299,4.022-0.501,8.068-0.501,12.165v35.19H63.226
		c-26.623,0-47.813,22.3-46.458,48.89l16.868,309.011C34.898,580.592,55.324,600,80.094,600h439.812
		c24.77,0,45.194-19.408,46.457-44.146l16.869-309.011C584.589,220.253,563.396,197.953,536.773,197.953z M324.162,400.572v67.335
		c0,11.594-9.486,21.08-21.08,21.08l0,0c-11.595,0-21.08-9.487-21.08-21.08v-67.335c-13.569-7.482-22.872-21.751-22.872-38.342
		c0-24.273,19.678-43.953,43.951-43.953c24.273,0,43.951,19.68,43.951,43.953C347.033,378.822,337.732,393.092,324.162,400.572z
		 M397.653,197.953H202.347v-35.19c0-53.892,43.789-97.755,97.652-97.882c53.864,0.126,97.653,43.989,97.653,97.882L397.653,197.953
		L397.653,197.953z"/>
</g>
</svg>
