<?xml version="1.0" encoding="utf-8"?>
<!-- Generator: Adobe Illustrator 16.0.0, SVG Export Plug-In . SVG Version: 6.00 Build 0)  -->
<!DOCTYPE svg PUBLIC "-//W3C//DTD SVG 1.1//EN" "http://www.w3.org/Graphics/SVG/1.1/DTD/svg11.dtd">
<svg version="1.1" id="レイヤー_1" xmlns="http://www.w3.org/2000/svg" xmlns:xlink="http://www.w3.org/1999/xlink" x="0px"
	 y="0px" width="600px" height="600px" viewBox="0 0 600 600" enable-background="new 0 0 600 600" xml:space="preserve">
<path fill="#323333" d="M61.565,270.09H33.471l-4.486,15.108c0.669-0.079,1.308-0.137,1.919-0.176c0.609-0.04,1.169-0.06,1.681-0.06
	c8.852,0,16.114,2.991,21.78,8.972c5.703,5.941,8.558,13.553,8.558,22.838c0,9.603-3.228,17.512-9.679,23.727
	c-6.456,6.219-14.58,9.327-24.375,9.327c-12.082,0-21.604-5.666-28.567-16.997l10.388-8.796c2.871,4.88,5.763,8.323,8.676,10.33
	c2.911,1.967,6.472,2.949,10.683,2.949c5.508,0,10.131-1.928,13.869-5.783c3.738-3.975,5.607-8.794,5.607-14.46
	c0-5.823-1.849-10.583-5.547-14.283c-3.698-3.814-8.323-5.724-13.871-5.724c-6.178,0-11.509,2.695-15.994,8.085H9.569l14.341-47.923
	h37.655V270.09z"/>
<path fill="#323333" d="M117.812,322.911h9.679v12.513h-9.679v12.926h-13.752v-12.926H59.322l58.489-84.987V322.911z
	 M104.059,322.911V292.4l-21.011,30.511H104.059z"/>
<path fill="#030000" d="M170.946,286.604v21.69c0,2.592-0.18,4.523-0.543,5.794c-0.361,1.449-0.977,2.673-1.845,3.672
	c-1.694,1.981-3.937,2.973-6.731,2.973c-2.114,0-4.088-0.55-5.927-1.648l2.475-4.32c1.231,0.823,2.382,1.238,3.452,1.238
	c1.507,0,2.546-0.574,3.126-1.717c0.607-1.145,0.912-3.139,0.912-5.991v-21.69H170.946z"/>
<path fill="#030000" d="M195.336,311.984h-14.352l-3.733,8.141h-5.45l16.589-35.627l16.002,35.627h-5.537L195.336,311.984z
	 M193.273,307.229l-4.971-11.397l-5.209,11.397H193.273z"/>
<path fill="#030000" d="M210.306,306.511v13.614h-5.059v-33.521h5.732c2.807,0,4.93,0.195,6.36,0.584
	c1.447,0.392,2.72,1.132,3.823,2.216c1.924,1.88,2.886,4.254,2.886,7.121c0,3.068-1.026,5.502-3.085,7.295
	c-2.054,1.795-4.824,2.69-8.313,2.69H210.306z M210.306,301.822h1.888c4.646,0,6.97-1.787,6.97-5.361
	c0-3.458-2.396-5.191-7.187-5.191h-1.671V301.822z"/>
<path fill="#030000" d="M245.616,311.984h-14.352l-3.734,8.141h-5.45l16.588-35.627l16.002,35.627h-5.537L245.616,311.984z
	 M243.553,307.229l-4.971-11.397l-5.209,11.397H243.553z"/>
<polygon fill="#030000" points="255.525,320.125 255.525,284.325 279.975,309.9 279.975,286.604 285.029,286.604 285.029,322.165 
	260.583,296.656 260.583,320.125 "/>
<polygon fill="#030000" points="298.943,320.125 306,284.085 317.508,310.137 329.426,284.085 335.765,320.125 330.578,320.125 
	327.342,299.892 317.421,321.67 307.781,299.869 304.176,320.125 "/>
<path fill="#030000" d="M337.858,303.213c0-4.72,1.729-8.773,5.191-12.161c3.445-3.385,7.581-5.077,12.418-5.077
	c4.776,0,8.87,1.706,12.289,5.123c3.429,3.414,5.146,7.521,5.146,12.312c0,4.817-1.726,8.908-5.171,12.264
	c-3.458,3.375-7.633,5.061-12.525,5.061c-4.328,0-8.216-1.497-11.659-4.496C339.754,312.925,337.858,308.582,337.858,303.213
	 M342.963,303.277c0,3.704,1.244,6.754,3.731,9.143c2.476,2.388,5.334,3.58,8.578,3.58c3.516,0,6.484-1.215,8.899-3.646
	c2.42-2.461,3.626-5.459,3.626-8.989c0-3.576-1.192-6.572-3.58-8.987c-2.374-2.434-5.313-3.65-8.816-3.65
	c-3.487,0-6.435,1.217-8.836,3.65C344.161,296.778,342.963,299.745,342.963,303.277"/>
<polygon fill="#030000" points="377.62,286.604 386.891,309.834 396.292,286.604 401.829,286.604 386.783,322.646 372.085,286.604 
	"/>
<polygon fill="#030000" points="421.163,291.357 407.723,291.357 407.723,299.413 420.771,299.413 420.771,304.167 407.723,304.167 
	407.723,315.371 421.163,315.371 421.163,320.125 402.665,320.125 402.665,286.604 421.163,286.604 "/>
<path fill="#030000" d="M439.916,286.604v20.193c0,2.878,0.471,4.984,1.411,6.314c1.403,1.929,3.379,2.891,5.927,2.891
	c2.562,0,4.545-0.962,5.948-2.891c0.94-1.287,1.411-3.391,1.411-6.314v-20.193h5.059v21.581c0,3.53-1.099,6.44-3.301,8.728
	c-2.475,2.55-5.514,3.82-9.117,3.82c-3.604,0-6.638-1.271-9.099-3.82c-2.199-2.287-3.298-5.197-3.298-8.728v-21.581H439.916z"/>
<path fill="#030000" d="M469.43,306.511v13.614h-5.059v-33.521h5.73c2.809,0,4.93,0.195,6.362,0.584
	c1.447,0.392,2.722,1.132,3.82,2.216c1.926,1.88,2.888,4.254,2.888,7.121c0,3.068-1.028,5.502-3.084,7.295
	c-2.053,1.795-4.826,2.69-8.315,2.69H469.43z M469.43,301.822h1.889c4.646,0,6.97-1.787,6.97-5.361c0-3.458-2.396-5.191-7.188-5.191
	h-1.671V301.822z"/>
<polygon fill="#E73D18" points="497.084,286.604 505.814,309.012 514.932,284.974 523.661,309.012 532.932,286.604 538.424,286.604 
	523.443,322.252 514.821,298.501 505.835,322.277 491.593,286.604 "/>
<polygon fill="#E73D18" points="557.757,291.357 544.317,291.357 544.317,299.413 557.365,299.413 557.365,304.167 544.317,304.167 
	544.317,315.371 557.757,315.371 557.757,320.125 539.259,320.125 539.259,286.604 557.757,286.604 "/>
<path fill="#E73D18" d="M580.02,291.596l-4.104,2.434c-0.768-1.331-1.499-2.202-2.193-2.606c-0.724-0.464-1.656-0.694-2.801-0.694
	c-1.403,0-2.568,0.398-3.495,1.192c-0.927,0.782-1.39,1.767-1.39,2.954c0,1.636,1.215,2.954,3.646,3.951l3.345,1.371
	c2.722,1.096,4.712,2.44,5.97,4.024c1.261,1.586,1.889,3.528,1.889,5.829c0,3.085-1.026,5.635-3.083,7.644
	c-2.068,2.027-4.639,3.041-7.707,3.041c-2.908,0-5.312-0.862-7.208-2.583c-1.866-1.725-3.033-4.146-3.495-7.276l5.124-1.126
	c0.23,1.968,0.637,3.327,1.215,4.082c1.043,1.445,2.562,2.169,4.562,2.169c1.577,0,2.888-0.529,3.928-1.584
	c1.043-1.058,1.563-2.396,1.563-4.018c0-0.649-0.089-1.246-0.271-1.789c-0.181-0.543-0.463-1.045-0.846-1.499
	c-0.384-0.456-0.882-0.881-1.486-1.283c-0.61-0.394-1.333-0.777-2.173-1.138l-3.234-1.348c-4.59-1.938-6.882-4.777-6.882-8.51
	c0-2.519,0.962-4.623,2.888-6.319c1.924-1.708,4.32-2.56,7.185-2.56C574.828,285.953,577.847,287.835,580.02,291.596"/>
<polygon fill="#E73D18" points="592.903,291.357 592.903,320.125 587.845,320.125 587.845,291.357 580.138,291.357 580.138,286.604 
	600.59,286.604 600.59,291.357 "/>
<polygon fill="#E73331" points="88.414,326.096 88.414,329.686 69.375,329.686 69.375,348.669 65.84,348.669 65.84,329.686 
	46.801,329.686 46.801,326.096 65.84,326.096 65.84,307.057 69.375,307.057 69.375,326.096 "/>
</svg>
