<?xml version="1.0" encoding="utf-8"?>
<!-- Generator: Adobe Illustrator 16.0.0, SVG Export Plug-In . SVG Version: 6.00 Build 0)  -->
<!DOCTYPE svg PUBLIC "-//W3C//DTD SVG 1.1//EN" "http://www.w3.org/Graphics/SVG/1.1/DTD/svg11.dtd">
<svg version="1.1" xmlns="http://www.w3.org/2000/svg" xmlns:xlink="http://www.w3.org/1999/xlink" x="0px" y="0px" width="600px"
	 height="600px" viewBox="0 0 600 600" enable-background="new 0 0 600 600" xml:space="preserve">
<g id="レイヤー_1" display="none">
	<path display="inline" fill="#323333" d="M61.565,270.09H33.471l-4.486,15.108c0.669-0.079,1.308-0.137,1.919-0.176
		c0.609-0.04,1.169-0.06,1.681-0.06c8.852,0,16.114,2.991,21.78,8.972c5.703,5.941,8.558,13.553,8.558,22.838
		c0,9.603-3.228,17.512-9.679,23.727c-6.456,6.219-14.58,9.327-24.375,9.327c-12.082,0-21.604-5.666-28.567-16.997l10.388-8.796
		c2.871,4.88,5.763,8.323,8.676,10.33c2.911,1.967,6.472,2.949,10.683,2.949c5.508,0,10.131-1.928,13.869-5.783
		c3.738-3.975,5.607-8.794,5.607-14.46c0-5.823-1.849-10.583-5.547-14.283c-3.698-3.814-8.323-5.724-13.871-5.724
		c-6.178,0-11.509,2.695-15.994,8.085H9.569l14.341-47.923h37.655V270.09z"/>
	<path display="inline" fill="#323333" d="M117.812,322.911h9.679v12.513h-9.679v12.926h-13.752v-12.926H59.322l58.489-84.987
		V322.911z M104.059,322.911V292.4l-21.011,30.511H104.059z"/>
	<path display="inline" fill="#030000" d="M170.946,286.604v21.69c0,2.592-0.18,4.523-0.543,5.794
		c-0.361,1.449-0.977,2.673-1.845,3.672c-1.694,1.981-3.937,2.973-6.731,2.973c-2.114,0-4.088-0.55-5.927-1.648l2.475-4.32
		c1.231,0.823,2.382,1.238,3.452,1.238c1.507,0,2.546-0.574,3.126-1.717c0.607-1.145,0.912-3.139,0.912-5.991v-21.69H170.946z"/>
	<path display="inline" fill="#030000" d="M195.336,311.984h-14.352l-3.733,8.141h-5.45l16.589-35.627l16.002,35.627h-5.537
		L195.336,311.984z M193.273,307.229l-4.971-11.397l-5.209,11.397H193.273z"/>
	<path display="inline" fill="#030000" d="M210.306,306.511v13.614h-5.059v-33.521h5.732c2.807,0,4.93,0.195,6.36,0.584
		c1.447,0.392,2.72,1.132,3.823,2.216c1.924,1.88,2.886,4.254,2.886,7.121c0,3.068-1.026,5.502-3.085,7.295
		c-2.054,1.795-4.824,2.69-8.313,2.69H210.306z M210.306,301.822h1.888c4.646,0,6.97-1.787,6.97-5.361
		c0-3.458-2.396-5.191-7.187-5.191h-1.671V301.822z"/>
	<path display="inline" fill="#030000" d="M245.616,311.984h-14.352l-3.734,8.141h-5.45l16.588-35.627l16.002,35.627h-5.537
		L245.616,311.984z M243.553,307.229l-4.971-11.397l-5.209,11.397H243.553z"/>
	<polygon display="inline" fill="#030000" points="255.525,320.125 255.525,284.325 279.975,309.9 279.975,286.604 285.029,286.604 
		285.029,322.165 260.583,296.656 260.583,320.125 	"/>
	<polygon display="inline" fill="#030000" points="298.943,320.125 306,284.085 317.508,310.137 329.426,284.085 335.765,320.125 
		330.578,320.125 327.342,299.892 317.421,321.67 307.781,299.869 304.176,320.125 	"/>
	<path display="inline" fill="#030000" d="M337.858,303.213c0-4.72,1.729-8.773,5.191-12.161c3.445-3.385,7.581-5.077,12.418-5.077
		c4.776,0,8.87,1.706,12.289,5.123c3.429,3.414,5.146,7.521,5.146,12.312c0,4.817-1.726,8.908-5.171,12.264
		c-3.458,3.375-7.633,5.061-12.525,5.061c-4.328,0-8.216-1.497-11.659-4.496C339.754,312.925,337.858,308.582,337.858,303.213
		 M342.963,303.277c0,3.704,1.244,6.754,3.731,9.143c2.476,2.388,5.334,3.58,8.578,3.58c3.516,0,6.484-1.215,8.899-3.646
		c2.42-2.461,3.626-5.459,3.626-8.989c0-3.576-1.192-6.572-3.58-8.987c-2.374-2.434-5.313-3.65-8.816-3.65
		c-3.487,0-6.435,1.217-8.836,3.65C344.161,296.778,342.963,299.745,342.963,303.277"/>
	<polygon display="inline" fill="#030000" points="377.62,286.604 386.891,309.834 396.292,286.604 401.829,286.604 
		386.783,322.646 372.085,286.604 	"/>
	<polygon display="inline" fill="#030000" points="421.163,291.357 407.723,291.357 407.723,299.413 420.771,299.413 
		420.771,304.167 407.723,304.167 407.723,315.371 421.163,315.371 421.163,320.125 402.665,320.125 402.665,286.604 
		421.163,286.604 	"/>
	<path display="inline" fill="#030000" d="M439.916,286.604v20.193c0,2.878,0.471,4.984,1.411,6.314
		c1.403,1.929,3.379,2.891,5.927,2.891c2.562,0,4.545-0.962,5.948-2.891c0.94-1.287,1.411-3.391,1.411-6.314v-20.193h5.059v21.581
		c0,3.53-1.099,6.44-3.301,8.728c-2.475,2.55-5.514,3.82-9.117,3.82c-3.604,0-6.638-1.271-9.099-3.82
		c-2.199-2.287-3.298-5.197-3.298-8.728v-21.581H439.916z"/>
	<path display="inline" fill="#030000" d="M469.43,306.511v13.614h-5.059v-33.521h5.73c2.809,0,4.93,0.195,6.362,0.584
		c1.447,0.392,2.722,1.132,3.82,2.216c1.926,1.88,2.888,4.254,2.888,7.121c0,3.068-1.028,5.502-3.084,7.295
		c-2.053,1.795-4.826,2.69-8.315,2.69H469.43z M469.43,301.822h1.889c4.646,0,6.97-1.787,6.97-5.361
		c0-3.458-2.396-5.191-7.188-5.191h-1.671V301.822z"/>
	<polygon display="inline" fill="#E73D18" points="497.084,286.604 505.814,309.012 514.932,284.974 523.661,309.012 
		532.932,286.604 538.424,286.604 523.443,322.252 514.821,298.501 505.835,322.277 491.593,286.604 	"/>
	<polygon display="inline" fill="#E73D18" points="557.757,291.357 544.317,291.357 544.317,299.413 557.365,299.413 
		557.365,304.167 544.317,304.167 544.317,315.371 557.757,315.371 557.757,320.125 539.259,320.125 539.259,286.604 
		557.757,286.604 	"/>
	<path display="inline" fill="#E73D18" d="M580.02,291.596l-4.104,2.434c-0.768-1.331-1.499-2.202-2.193-2.606
		c-0.724-0.464-1.656-0.694-2.801-0.694c-1.403,0-2.568,0.398-3.495,1.192c-0.927,0.782-1.39,1.767-1.39,2.954
		c0,1.636,1.215,2.954,3.646,3.951l3.345,1.371c2.722,1.096,4.712,2.44,5.97,4.024c1.261,1.586,1.889,3.528,1.889,5.829
		c0,3.085-1.026,5.635-3.083,7.644c-2.068,2.027-4.639,3.041-7.707,3.041c-2.908,0-5.312-0.862-7.208-2.583
		c-1.866-1.725-3.033-4.146-3.495-7.276l5.124-1.126c0.23,1.968,0.637,3.327,1.215,4.082c1.043,1.445,2.562,2.169,4.562,2.169
		c1.577,0,2.888-0.529,3.928-1.584c1.043-1.058,1.563-2.396,1.563-4.018c0-0.649-0.089-1.246-0.271-1.789
		c-0.181-0.543-0.463-1.045-0.846-1.499c-0.384-0.456-0.882-0.881-1.486-1.283c-0.61-0.394-1.333-0.777-2.173-1.138l-3.234-1.348
		c-4.59-1.938-6.882-4.777-6.882-8.51c0-2.519,0.962-4.623,2.888-6.319c1.924-1.708,4.32-2.56,7.185-2.56
		C574.828,285.953,577.847,287.835,580.02,291.596"/>
	<polygon display="inline" fill="#E73D18" points="592.903,291.357 592.903,320.125 587.845,320.125 587.845,291.357 
		580.138,291.357 580.138,286.604 600.59,286.604 600.59,291.357 	"/>
	<polygon display="inline" fill="#E73331" points="88.414,326.096 88.414,329.686 69.375,329.686 69.375,348.669 65.84,348.669 
		65.84,329.686 46.801,329.686 46.801,326.096 65.84,326.096 65.84,307.057 69.375,307.057 69.375,326.096 	"/>
</g>
<g id="レイヤー_2">
	<path fill="#FFFFFF" d="M289.363,123.875H157.341L136.26,194.88c3.142-0.369,6.146-0.647,9.014-0.834
		c2.867-0.182,5.5-0.278,7.908-0.278c41.601,0,75.718,14.054,102.345,42.159c26.809,27.922,40.215,63.701,40.215,107.336
		c0,45.12-15.162,82.286-45.486,111.499c-30.329,29.22-68.508,43.825-114.549,43.825c-56.768,0-101.513-26.629-134.242-79.88
		l48.817-41.328c13.494,22.933,27.083,39.107,40.769,48.539c13.684,9.247,30.415,13.867,50.202,13.867
		c25.885,0,47.609-9.058,65.18-27.181c17.565-18.672,26.348-41.324,26.348-67.954c0-27.363-8.692-49.737-26.071-67.121
		c-17.383-17.932-39.107-26.902-65.179-26.902c-29.033,0-54.086,12.666-75.164,37.997H45.01l67.397-225.215h176.957V123.875z"/>
	<path fill="#FFFFFF" d="M553.689,372.11h45.486v58.8h-45.486v60.741h-64.625V430.91H278.827L553.689,31.515V372.11z
		 M489.064,372.11V228.717L390.325,372.11H489.064z"/>
	<path fill="#FFFFFF" d="M84.306,530.959v23.264c0,2.778-0.193,4.851-0.583,6.214c-0.387,1.554-1.047,2.866-1.979,3.938
		c-1.817,2.126-4.224,3.188-7.22,3.188c-2.268,0-4.386-0.589-6.356-1.768l2.655-4.634c1.321,0.883,2.555,1.327,3.702,1.327
		c1.617,0,2.731-0.615,3.353-1.841c0.651-1.227,0.977-3.366,0.977-6.425v-23.264H84.306z"/>
	<path fill="#FFFFFF" d="M110.466,558.18H95.072l-4.004,8.731h-5.845l17.792-38.211l17.162,38.211h-5.938L110.466,558.18z
		 M108.252,553.079l-5.332-12.224l-5.587,12.224H108.252z"/>
	<path fill="#FFFFFF" d="M126.52,552.311v14.601h-5.425v-35.952h6.146c3.013,0,5.287,0.209,6.821,0.627
		c1.553,0.42,2.918,1.214,4.1,2.377c2.065,2.017,3.097,4.562,3.097,7.637c0,3.291-1.102,5.901-3.309,7.824
		c-2.205,1.926-5.175,2.887-8.918,2.887H126.52z M126.52,547.281h2.027c4.981,0,7.474-1.917,7.474-5.75
		c0-3.709-2.57-5.567-7.708-5.567h-1.792V547.281z"/>
	<path fill="#FFFFFF" d="M164.392,558.18h-15.394l-4.004,8.731h-5.845L156.94,528.7l17.161,38.211h-5.938L164.392,558.18z
		 M162.179,553.079l-5.332-12.224l-5.587,12.224H162.179z"/>
	<polygon fill="#FFFFFF" points="175.019,566.911 175.019,528.516 201.24,555.945 201.24,530.959 206.663,530.959 206.663,569.099 
		180.444,541.74 180.444,566.911 	"/>
	<polygon fill="#FFFFFF" points="221.585,566.911 229.154,528.258 241.496,556.199 254.277,528.258 261.079,566.911 
		255.513,566.911 252.044,545.211 241.402,568.567 231.063,545.187 227.197,566.911 	"/>
	<path fill="#FFFFFF" d="M263.323,548.772c0-5.062,1.855-9.409,5.566-13.042c3.695-3.631,8.132-5.445,13.319-5.445
		c5.123,0,9.514,1.83,13.18,5.494c3.678,3.662,5.519,8.066,5.519,13.205c0,5.167-1.85,9.554-5.545,13.153
		c-3.708,3.619-8.187,5.427-13.434,5.427c-4.642,0-8.811-1.605-12.504-4.822C265.355,559.189,263.323,554.531,263.323,548.772
		 M268.796,548.842c0,3.973,1.334,7.243,4.004,9.805c2.655,2.562,5.72,3.84,9.198,3.84c3.773,0,6.956-1.303,9.546-3.911
		c2.594-2.639,3.889-5.854,3.889-9.641c0-3.835-1.278-7.048-3.84-9.638c-2.545-2.61-5.7-3.916-9.456-3.916
		c-3.741,0-6.9,1.306-9.476,3.916C270.082,541.871,268.796,545.053,268.796,548.842"/>
	<polygon fill="#FFFFFF" points="305.968,530.959 315.911,555.874 325.994,530.959 331.933,530.959 315.795,569.615 
		300.031,530.959 	"/>
	<polygon fill="#FFFFFF" points="352.668,536.057 338.254,536.057 338.254,544.697 352.248,544.697 352.248,549.795 
		338.254,549.795 338.254,561.812 352.668,561.812 352.668,566.911 332.828,566.911 332.828,530.959 352.668,530.959 	"/>
	<path fill="#FFFFFF" d="M372.781,530.959v21.658c0,3.086,0.504,5.345,1.514,6.772c1.505,2.067,3.624,3.099,6.356,3.099
		c2.748,0,4.874-1.031,6.379-3.099c1.01-1.381,1.515-3.638,1.515-6.772v-21.658h5.425v23.146c0,3.786-1.179,6.908-3.54,9.36
		c-2.654,2.734-5.914,4.098-9.778,4.098c-3.866,0-7.119-1.363-9.758-4.098c-2.359-2.452-3.538-5.574-3.538-9.36v-23.146H372.781z"/>
	<path fill="#FFFFFF" d="M404.436,552.311v14.601h-5.426v-35.952h6.146c3.013,0,5.288,0.209,6.824,0.627
		c1.552,0.42,2.919,1.214,4.098,2.377c2.065,2.017,3.097,4.562,3.097,7.637c0,3.291-1.103,5.901-3.309,7.824
		c-2.201,1.926-5.176,2.887-8.918,2.887H404.436z M404.436,547.281h2.025c4.982,0,7.475-1.917,7.475-5.75
		c0-3.709-2.57-5.567-7.708-5.567h-1.792V547.281z"/>
	<polygon fill="#E73D18" points="434.096,530.959 443.458,554.991 453.236,529.211 462.6,554.991 472.542,530.959 478.432,530.959 
		462.366,569.192 453.119,543.719 443.48,569.219 428.205,530.959 	"/>
	<polygon fill="#E73D18" points="499.168,536.057 484.753,536.057 484.753,544.697 498.747,544.697 498.747,549.795 
		484.753,549.795 484.753,561.812 499.168,561.812 499.168,566.911 479.328,566.911 479.328,530.959 499.168,530.959 	"/>
	<path fill="#E73D18" d="M523.045,536.312l-4.402,2.61c-0.823-1.427-1.607-2.361-2.353-2.795c-0.776-0.498-1.776-0.744-3.004-0.744
		c-1.505,0-2.755,0.427-3.749,1.278c-0.993,0.838-1.489,1.895-1.489,3.168c0,1.754,1.303,3.168,3.911,4.238l3.586,1.469
		c2.92,1.177,5.054,2.617,6.403,4.316c1.352,1.7,2.025,3.784,2.025,6.252c0,3.309-1.101,6.043-3.306,8.197
		c-2.219,2.175-4.977,3.262-8.267,3.262c-3.12,0-5.696-0.925-7.731-2.77c-2.001-1.851-3.252-4.447-3.748-7.805l5.496-1.207
		c0.247,2.109,0.683,3.568,1.303,4.378c1.118,1.55,2.748,2.325,4.892,2.325c1.692,0,3.098-0.566,4.214-1.698
		c1.118-1.134,1.676-2.57,1.676-4.31c0-0.695-0.096-1.336-0.291-1.918c-0.193-0.583-0.496-1.121-0.907-1.607
		c-0.411-0.489-0.945-0.945-1.594-1.377c-0.654-0.422-1.43-0.834-2.33-1.221l-3.469-1.445c-4.923-2.078-7.382-5.122-7.382-9.127
		c0-2.701,1.031-4.958,3.098-6.776c2.062-1.832,4.633-2.746,7.706-2.746C517.478,530.261,520.715,532.279,523.045,536.312"/>
	<polygon fill="#E73D18" points="536.863,536.057 536.863,566.911 531.438,566.911 531.438,536.057 523.171,536.057 
		523.171,530.959 545.107,530.959 545.107,536.057 	"/>
	<polygon fill="#E73331" points="415.537,387.065 415.537,403.943 326.062,403.943 326.062,493.15 309.454,493.15 309.454,403.943 
		219.981,403.943 219.981,387.065 309.454,387.065 309.454,297.593 326.062,297.593 326.062,387.065 	"/>
</g>
<g id="レイヤー_3">
</g>
<g id="レイヤー_4">
</g>
</svg>
