<?xml version="1.0" encoding="utf-8"?>
<!-- Generator: Adobe Illustrator 16.0.0, SVG Export Plug-In . SVG Version: 6.00 Build 0)  -->
<!DOCTYPE svg PUBLIC "-//W3C//DTD SVG 1.1//EN" "http://www.w3.org/Graphics/SVG/1.1/DTD/svg11.dtd">
<svg version="1.1" xmlns="http://www.w3.org/2000/svg" xmlns:xlink="http://www.w3.org/1999/xlink" x="0px" y="0px" width="600px"
	 height="600px" viewBox="0 0 600 600" enable-background="new 0 0 600 600" xml:space="preserve">
<g id="レイヤー_1" display="none">
	<path display="inline" fill="#323333" d="M61.565,270.09H33.471l-4.486,15.108c0.669-0.079,1.308-0.137,1.919-0.176
		c0.609-0.04,1.169-0.06,1.681-0.06c8.852,0,16.114,2.991,21.78,8.972c5.703,5.941,8.558,13.553,8.558,22.838
		c0,9.603-3.228,17.512-9.679,23.727c-6.456,6.219-14.58,9.327-24.375,9.327c-12.082,0-21.604-5.666-28.567-16.997l10.388-8.796
		c2.871,4.88,5.763,8.323,8.676,10.33c2.911,1.967,6.472,2.949,10.683,2.949c5.508,0,10.131-1.928,13.869-5.783
		c3.738-3.975,5.607-8.794,5.607-14.46c0-5.823-1.849-10.583-5.547-14.283c-3.698-3.814-8.323-5.724-13.871-5.724
		c-6.178,0-11.509,2.695-15.994,8.085H9.569l14.341-47.923h37.655V270.09z"/>
	<path display="inline" fill="#323333" d="M117.812,322.911h9.679v12.513h-9.679v12.926h-13.752v-12.926H59.322l58.489-84.987
		V322.911z M104.059,322.911V292.4l-21.011,30.511H104.059z"/>
	<path display="inline" fill="#030000" d="M170.946,286.604v21.69c0,2.592-0.18,4.523-0.543,5.794
		c-0.361,1.449-0.977,2.673-1.845,3.672c-1.694,1.981-3.937,2.973-6.731,2.973c-2.114,0-4.088-0.55-5.927-1.648l2.475-4.32
		c1.231,0.823,2.382,1.238,3.452,1.238c1.507,0,2.546-0.574,3.126-1.717c0.607-1.145,0.912-3.139,0.912-5.991v-21.69H170.946z"/>
	<path display="inline" fill="#030000" d="M195.336,311.984h-14.352l-3.733,8.141h-5.45l16.589-35.627l16.002,35.627h-5.537
		L195.336,311.984z M193.273,307.229l-4.971-11.397l-5.209,11.397H193.273z"/>
	<path display="inline" fill="#030000" d="M210.306,306.511v13.614h-5.059v-33.521h5.732c2.807,0,4.93,0.195,6.36,0.584
		c1.447,0.392,2.72,1.132,3.823,2.216c1.924,1.88,2.886,4.254,2.886,7.121c0,3.068-1.026,5.502-3.085,7.295
		c-2.054,1.795-4.824,2.69-8.313,2.69H210.306z M210.306,301.822h1.888c4.646,0,6.97-1.787,6.97-5.361
		c0-3.458-2.396-5.191-7.187-5.191h-1.671V301.822z"/>
	<path display="inline" fill="#030000" d="M245.616,311.984h-14.352l-3.734,8.141h-5.45l16.588-35.627l16.002,35.627h-5.537
		L245.616,311.984z M243.553,307.229l-4.971-11.397l-5.209,11.397H243.553z"/>
	<polygon display="inline" fill="#030000" points="255.525,320.125 255.525,284.325 279.975,309.9 279.975,286.604 285.029,286.604 
		285.029,322.165 260.583,296.656 260.583,320.125 	"/>
	<polygon display="inline" fill="#030000" points="298.943,320.125 306,284.085 317.508,310.137 329.426,284.085 335.765,320.125 
		330.578,320.125 327.342,299.892 317.421,321.67 307.781,299.869 304.176,320.125 	"/>
	<path display="inline" fill="#030000" d="M337.858,303.213c0-4.72,1.729-8.773,5.191-12.161c3.445-3.385,7.581-5.077,12.418-5.077
		c4.776,0,8.87,1.706,12.289,5.123c3.429,3.414,5.146,7.521,5.146,12.312c0,4.817-1.726,8.908-5.171,12.264
		c-3.458,3.375-7.633,5.061-12.525,5.061c-4.328,0-8.216-1.497-11.659-4.496C339.754,312.925,337.858,308.582,337.858,303.213
		 M342.963,303.277c0,3.704,1.244,6.754,3.731,9.143c2.476,2.388,5.334,3.58,8.578,3.58c3.516,0,6.484-1.215,8.899-3.646
		c2.42-2.461,3.626-5.459,3.626-8.989c0-3.576-1.192-6.572-3.58-8.987c-2.374-2.434-5.313-3.65-8.816-3.65
		c-3.487,0-6.435,1.217-8.836,3.65C344.161,296.778,342.963,299.745,342.963,303.277"/>
	<polygon display="inline" fill="#030000" points="377.62,286.604 386.891,309.834 396.292,286.604 401.829,286.604 
		386.783,322.646 372.085,286.604 	"/>
	<polygon display="inline" fill="#030000" points="421.163,291.357 407.723,291.357 407.723,299.413 420.771,299.413 
		420.771,304.167 407.723,304.167 407.723,315.371 421.163,315.371 421.163,320.125 402.665,320.125 402.665,286.604 
		421.163,286.604 	"/>
	<path display="inline" fill="#030000" d="M439.916,286.604v20.193c0,2.878,0.471,4.984,1.411,6.314
		c1.403,1.929,3.379,2.891,5.927,2.891c2.562,0,4.545-0.962,5.948-2.891c0.94-1.287,1.411-3.391,1.411-6.314v-20.193h5.059v21.581
		c0,3.53-1.099,6.44-3.301,8.728c-2.475,2.55-5.514,3.82-9.117,3.82c-3.604,0-6.638-1.271-9.099-3.82
		c-2.199-2.287-3.298-5.197-3.298-8.728v-21.581H439.916z"/>
	<path display="inline" fill="#030000" d="M469.43,306.511v13.614h-5.059v-33.521h5.73c2.809,0,4.93,0.195,6.362,0.584
		c1.447,0.392,2.722,1.132,3.82,2.216c1.926,1.88,2.888,4.254,2.888,7.121c0,3.068-1.028,5.502-3.084,7.295
		c-2.053,1.795-4.826,2.69-8.315,2.69H469.43z M469.43,301.822h1.889c4.646,0,6.97-1.787,6.97-5.361
		c0-3.458-2.396-5.191-7.188-5.191h-1.671V301.822z"/>
	<polygon display="inline" fill="#E73D18" points="497.084,286.604 505.814,309.012 514.932,284.974 523.661,309.012 
		532.932,286.604 538.424,286.604 523.443,322.252 514.821,298.501 505.835,322.277 491.593,286.604 	"/>
	<polygon display="inline" fill="#E73D18" points="557.757,291.357 544.317,291.357 544.317,299.413 557.365,299.413 
		557.365,304.167 544.317,304.167 544.317,315.371 557.757,315.371 557.757,320.125 539.259,320.125 539.259,286.604 
		557.757,286.604 	"/>
	<path display="inline" fill="#E73D18" d="M580.02,291.596l-4.104,2.434c-0.768-1.331-1.499-2.202-2.193-2.606
		c-0.724-0.464-1.656-0.694-2.801-0.694c-1.403,0-2.568,0.398-3.495,1.192c-0.927,0.782-1.39,1.767-1.39,2.954
		c0,1.636,1.215,2.954,3.646,3.951l3.345,1.371c2.722,1.096,4.712,2.44,5.97,4.024c1.261,1.586,1.889,3.528,1.889,5.829
		c0,3.085-1.026,5.635-3.083,7.644c-2.068,2.027-4.639,3.041-7.707,3.041c-2.908,0-5.312-0.862-7.208-2.583
		c-1.866-1.725-3.033-4.146-3.495-7.276l5.124-1.126c0.23,1.968,0.637,3.327,1.215,4.082c1.043,1.445,2.562,2.169,4.562,2.169
		c1.577,0,2.888-0.529,3.928-1.584c1.043-1.058,1.563-2.396,1.563-4.018c0-0.649-0.089-1.246-0.271-1.789
		c-0.181-0.543-0.463-1.045-0.846-1.499c-0.384-0.456-0.882-0.881-1.486-1.283c-0.61-0.394-1.333-0.777-2.173-1.138l-3.234-1.348
		c-4.59-1.938-6.882-4.777-6.882-8.51c0-2.519,0.962-4.623,2.888-6.319c1.924-1.708,4.32-2.56,7.185-2.56
		C574.828,285.953,577.847,287.835,580.02,291.596"/>
	<polygon display="inline" fill="#E73D18" points="592.903,291.357 592.903,320.125 587.845,320.125 587.845,291.357 
		580.138,291.357 580.138,286.604 600.59,286.604 600.59,291.357 	"/>
	<polygon display="inline" fill="#E73331" points="88.414,326.096 88.414,329.686 69.375,329.686 69.375,348.669 65.84,348.669 
		65.84,329.686 46.801,329.686 46.801,326.096 65.84,326.096 65.84,307.057 69.375,307.057 69.375,326.096 	"/>
</g>
<g id="レイヤー_2" display="none">
	<path display="inline" fill="#323333" d="M289.363,123.875H157.341L136.26,194.88c3.142-0.369,6.146-0.647,9.014-0.834
		c2.867-0.182,5.5-0.278,7.908-0.278c41.601,0,75.718,14.054,102.345,42.159c26.809,27.922,40.215,63.701,40.215,107.336
		c0,45.12-15.162,82.286-45.486,111.499c-30.329,29.22-68.508,43.825-114.549,43.825c-56.768,0-101.513-26.629-134.242-79.88
		l48.817-41.328c13.494,22.933,27.083,39.107,40.769,48.539c13.684,9.247,30.415,13.867,50.202,13.867
		c25.885,0,47.609-9.058,65.18-27.181c17.565-18.672,26.348-41.324,26.348-67.954c0-27.363-8.692-49.737-26.071-67.121
		c-17.383-17.932-39.107-26.902-65.179-26.902c-29.033,0-54.086,12.666-75.164,37.997H45.01l67.397-225.215h176.957V123.875z"/>
	<path display="inline" fill="#323333" d="M553.689,372.11h45.486v58.8h-45.486v60.741h-64.625V430.91H278.827L553.689,31.515
		V372.11z M489.064,372.11V228.717L390.325,372.11H489.064z"/>
	<path display="inline" fill="#030000" d="M84.306,530.959v23.264c0,2.778-0.193,4.851-0.583,6.214
		c-0.387,1.554-1.047,2.866-1.979,3.938c-1.817,2.126-4.224,3.188-7.22,3.188c-2.268,0-4.386-0.589-6.356-1.768l2.655-4.634
		c1.321,0.883,2.555,1.327,3.702,1.327c1.617,0,2.731-0.615,3.353-1.841c0.651-1.227,0.977-3.366,0.977-6.425v-23.264H84.306z"/>
	<path display="inline" fill="#030000" d="M110.466,558.18H95.072l-4.004,8.731h-5.845l17.792-38.211l17.162,38.211h-5.938
		L110.466,558.18z M108.252,553.079l-5.332-12.224l-5.587,12.224H108.252z"/>
	<path display="inline" fill="#030000" d="M126.52,552.311v14.601h-5.425v-35.952h6.146c3.013,0,5.287,0.209,6.821,0.627
		c1.553,0.42,2.918,1.214,4.1,2.377c2.065,2.017,3.097,4.562,3.097,7.637c0,3.291-1.102,5.901-3.309,7.824
		c-2.205,1.926-5.175,2.887-8.918,2.887H126.52z M126.52,547.281h2.027c4.981,0,7.474-1.917,7.474-5.75
		c0-3.709-2.57-5.567-7.708-5.567h-1.792V547.281z"/>
	<path display="inline" fill="#030000" d="M164.392,558.18h-15.394l-4.004,8.731h-5.845L156.94,528.7l17.161,38.211h-5.938
		L164.392,558.18z M162.179,553.079l-5.332-12.224l-5.587,12.224H162.179z"/>
	<polygon display="inline" fill="#030000" points="175.019,566.911 175.019,528.516 201.24,555.945 201.24,530.959 206.663,530.959 
		206.663,569.099 180.444,541.74 180.444,566.911 	"/>
	<polygon display="inline" fill="#030000" points="221.585,566.911 229.154,528.258 241.496,556.199 254.277,528.258 
		261.079,566.911 255.513,566.911 252.044,545.211 241.402,568.567 231.063,545.187 227.197,566.911 	"/>
	<path display="inline" fill="#030000" d="M263.323,548.772c0-5.062,1.855-9.409,5.566-13.042c3.695-3.631,8.132-5.445,13.319-5.445
		c5.123,0,9.514,1.83,13.18,5.494c3.678,3.662,5.519,8.066,5.519,13.205c0,5.167-1.85,9.554-5.545,13.153
		c-3.708,3.619-8.187,5.427-13.434,5.427c-4.642,0-8.811-1.605-12.504-4.822C265.355,559.189,263.323,554.531,263.323,548.772
		 M268.796,548.842c0,3.973,1.334,7.243,4.004,9.805c2.655,2.562,5.72,3.84,9.198,3.84c3.773,0,6.956-1.303,9.546-3.911
		c2.594-2.639,3.889-5.854,3.889-9.641c0-3.835-1.278-7.048-3.84-9.638c-2.545-2.61-5.7-3.916-9.456-3.916
		c-3.741,0-6.9,1.306-9.476,3.916C270.082,541.871,268.796,545.053,268.796,548.842"/>
	<polygon display="inline" fill="#030000" points="305.968,530.959 315.911,555.874 325.994,530.959 331.933,530.959 
		315.795,569.615 300.031,530.959 	"/>
	<polygon display="inline" fill="#030000" points="352.668,536.057 338.254,536.057 338.254,544.697 352.248,544.697 
		352.248,549.795 338.254,549.795 338.254,561.812 352.668,561.812 352.668,566.911 332.828,566.911 332.828,530.959 
		352.668,530.959 	"/>
	<path display="inline" fill="#030000" d="M372.781,530.959v21.658c0,3.086,0.504,5.345,1.514,6.772
		c1.505,2.067,3.624,3.099,6.356,3.099c2.748,0,4.874-1.031,6.379-3.099c1.01-1.381,1.515-3.638,1.515-6.772v-21.658h5.425v23.146
		c0,3.786-1.179,6.908-3.54,9.36c-2.654,2.734-5.914,4.098-9.778,4.098c-3.866,0-7.119-1.363-9.758-4.098
		c-2.359-2.452-3.538-5.574-3.538-9.36v-23.146H372.781z"/>
	<path display="inline" fill="#030000" d="M404.436,552.311v14.601h-5.426v-35.952h6.146c3.013,0,5.288,0.209,6.824,0.627
		c1.552,0.42,2.919,1.214,4.098,2.377c2.065,2.017,3.097,4.562,3.097,7.637c0,3.291-1.103,5.901-3.309,7.824
		c-2.201,1.926-5.176,2.887-8.918,2.887H404.436z M404.436,547.281h2.025c4.982,0,7.475-1.917,7.475-5.75
		c0-3.709-2.57-5.567-7.708-5.567h-1.792V547.281z"/>
	<polygon display="inline" fill="#E73D18" points="434.096,530.959 443.458,554.991 453.236,529.211 462.6,554.991 472.542,530.959 
		478.432,530.959 462.366,569.192 453.119,543.719 443.48,569.219 428.205,530.959 	"/>
	<polygon display="inline" fill="#E73D18" points="499.168,536.057 484.753,536.057 484.753,544.697 498.747,544.697 
		498.747,549.795 484.753,549.795 484.753,561.812 499.168,561.812 499.168,566.911 479.328,566.911 479.328,530.959 
		499.168,530.959 	"/>
	<path display="inline" fill="#E73D18" d="M523.045,536.312l-4.402,2.61c-0.823-1.427-1.607-2.361-2.353-2.795
		c-0.776-0.498-1.776-0.744-3.004-0.744c-1.505,0-2.755,0.427-3.749,1.278c-0.993,0.838-1.489,1.895-1.489,3.168
		c0,1.754,1.303,3.168,3.911,4.238l3.586,1.469c2.92,1.177,5.054,2.617,6.403,4.316c1.352,1.7,2.025,3.784,2.025,6.252
		c0,3.309-1.101,6.043-3.306,8.197c-2.219,2.175-4.977,3.262-8.267,3.262c-3.12,0-5.696-0.925-7.731-2.77
		c-2.001-1.851-3.252-4.447-3.748-7.805l5.496-1.207c0.247,2.109,0.683,3.568,1.303,4.378c1.118,1.55,2.748,2.325,4.892,2.325
		c1.692,0,3.098-0.566,4.214-1.698c1.118-1.134,1.676-2.57,1.676-4.31c0-0.695-0.096-1.336-0.291-1.918
		c-0.193-0.583-0.496-1.121-0.907-1.607c-0.411-0.489-0.945-0.945-1.594-1.377c-0.654-0.422-1.43-0.834-2.33-1.221l-3.469-1.445
		c-4.923-2.078-7.382-5.122-7.382-9.127c0-2.701,1.031-4.958,3.098-6.776c2.062-1.832,4.633-2.746,7.706-2.746
		C517.478,530.261,520.715,532.279,523.045,536.312"/>
	<polygon display="inline" fill="#E73D18" points="536.863,536.057 536.863,566.911 531.438,566.911 531.438,536.057 
		523.171,536.057 523.171,530.959 545.107,530.959 545.107,536.057 	"/>
	<polygon display="inline" fill="#E73331" points="415.537,387.065 415.537,403.943 326.062,403.943 326.062,493.15 309.454,493.15 
		309.454,403.943 219.981,403.943 219.981,387.065 309.454,387.065 309.454,297.593 326.062,297.593 326.062,387.065 	"/>
</g>
<g id="レイヤー_3" display="none">
	<path display="inline" fill="#FFFFFF" d="M60.977,270.526H33.293l-4.421,14.889c0.658-0.078,1.287-0.135,1.89-0.174
		c0.601-0.039,1.152-0.059,1.657-0.059c8.726,0,15.88,2.948,21.463,8.842c5.622,5.855,8.434,13.357,8.434,22.507
		c0,9.463-3.179,17.257-9.539,23.382c-6.359,6.129-14.366,9.191-24.021,9.191c-11.904,0-21.288-5.584-28.152-16.751l10.237-8.668
		c2.83,4.81,5.679,8.202,8.55,10.18c2.87,1.939,6.378,2.907,10.527,2.907c5.428,0,9.984-1.899,13.669-5.699
		c3.681-3.917,5.524-8.667,5.524-14.25c0-5.738-1.822-10.429-5.467-14.076c-3.645-3.761-8.2-5.64-13.669-5.64
		c-6.088,0-11.34,2.656-15.761,7.967H9.735l14.133-47.227h37.108V270.526z"/>
	<path display="inline" fill="#FFFFFF" d="M116.407,322.58h9.539v12.332h-9.539v12.737h-13.551v-12.737H58.767l57.64-83.753V322.58z
		 M102.855,322.58v-30.068L82.15,322.58H102.855z"/>
	<path display="inline" fill="#FFFFFF" d="M175.387,286.8v21.376c0,2.554-0.178,4.457-0.535,5.71
		c-0.355,1.428-0.962,2.633-1.818,3.618c-1.669,1.953-3.879,2.93-6.633,2.93c-2.084,0-4.029-0.542-5.841-1.625l2.439-4.257
		c1.213,0.811,2.347,1.22,3.401,1.22c1.485,0,2.509-0.566,3.081-1.691c0.599-1.128,0.899-3.094,0.899-5.904V286.8H175.387z"/>
	<path display="inline" fill="#FFFFFF" d="M199.422,311.812h-14.144l-3.679,8.023h-5.371l16.348-35.11l15.77,35.11h-5.457
		L199.422,311.812z M197.39,307.125l-4.899-11.232l-5.134,11.232H197.39z"/>
	<path display="inline" fill="#FFFFFF" d="M214.174,306.419v13.416h-4.985V286.8h5.649c2.766,0,4.858,0.192,6.268,0.576
		c1.426,0.386,2.68,1.116,3.767,2.184c1.896,1.853,2.844,4.192,2.844,7.018c0,3.023-1.011,5.422-3.04,7.189
		c-2.024,1.77-4.754,2.652-8.192,2.652H214.174z M214.174,301.797h1.861c4.578,0,6.868-1.761,6.868-5.283
		c0-3.408-2.361-5.116-7.083-5.116h-1.647V301.797z"/>
	<path display="inline" fill="#FFFFFF" d="M248.972,311.812h-14.144l-3.679,8.023h-5.371l16.348-35.11l15.77,35.11h-5.457
		L248.972,311.812z M246.939,307.125l-4.899-11.232l-5.134,11.232H246.939z"/>
	<polygon display="inline" fill="#FFFFFF" points="258.737,319.835 258.737,284.555 282.832,309.759 282.832,286.8 287.813,286.8 
		287.813,321.845 263.722,296.706 263.722,319.835 	"/>
	<polygon display="inline" fill="#FFFFFF" points="301.525,319.835 308.479,284.318 319.82,309.992 331.564,284.318 
		337.812,319.835 332.701,319.835 329.512,299.896 319.734,321.356 310.234,299.873 306.682,319.835 	"/>
	<path display="inline" fill="#FFFFFF" d="M339.876,303.168c0-4.651,1.703-8.646,5.115-11.984c3.396-3.336,7.471-5.003,12.237-5.003
		c4.707,0,8.742,1.681,12.11,5.048c3.379,3.365,5.071,7.412,5.071,12.133c0,4.748-1.7,8.778-5.096,12.086
		c-3.407,3.326-7.521,4.987-12.344,4.987c-4.266,0-8.096-1.476-11.489-4.432C341.743,312.739,339.876,308.459,339.876,303.168
		 M344.905,303.231c0,3.651,1.226,6.656,3.678,9.01c2.438,2.354,5.256,3.528,8.453,3.528c3.465,0,6.391-1.197,8.771-3.594
		c2.385-2.425,3.573-5.379,3.573-8.858c0-3.524-1.175-6.476-3.528-8.856c-2.339-2.398-5.236-3.598-8.688-3.598
		c-3.437,0-6.341,1.199-8.707,3.598C346.086,296.827,344.905,299.75,344.905,303.231"/>
	<polygon display="inline" fill="#FFFFFF" points="379.06,286.8 388.195,309.693 397.461,286.8 402.917,286.8 388.09,322.319 
		373.604,286.8 	"/>
	<polygon display="inline" fill="#FFFFFF" points="421.97,291.484 408.726,291.484 408.726,299.423 421.584,299.423 
		421.584,304.108 408.726,304.108 408.726,315.15 421.97,315.15 421.97,319.835 403.74,319.835 403.74,286.8 421.97,286.8 	"/>
	<path display="inline" fill="#FFFFFF" d="M440.45,286.8v19.9c0,2.836,0.464,4.911,1.392,6.224c1.383,1.899,3.33,2.848,5.841,2.848
		c2.525,0,4.479-0.948,5.861-2.848c0.928-1.27,1.392-3.343,1.392-6.224v-19.9h4.984v21.268c0,3.479-1.083,6.348-3.252,8.601
		c-2.439,2.513-5.435,3.766-8.985,3.766c-3.553,0-6.542-1.253-8.967-3.766c-2.167-2.253-3.25-5.121-3.25-8.601V286.8H440.45z"/>
	<path display="inline" fill="#FFFFFF" d="M469.536,306.419v13.416h-4.985V286.8h5.647c2.768,0,4.858,0.192,6.27,0.576
		c1.426,0.386,2.683,1.116,3.766,2.184c1.897,1.853,2.846,4.192,2.846,7.018c0,3.023-1.014,5.422-3.04,7.189
		c-2.022,1.77-4.756,2.652-8.194,2.652H469.536z M469.536,301.797h1.861c4.578,0,6.868-1.761,6.868-5.283
		c0-3.408-2.361-5.116-7.083-5.116h-1.646V301.797z"/>
	<polygon display="inline" fill="#E73D18" points="496.789,286.8 505.392,308.883 514.377,285.194 522.979,308.883 532.116,286.8 
		537.527,286.8 522.766,321.931 514.269,298.524 505.412,321.955 491.377,286.8 	"/>
	<polygon display="inline" fill="#E73D18" points="556.58,291.484 543.336,291.484 543.336,299.423 556.194,299.423 
		556.194,304.108 543.336,304.108 543.336,315.15 556.58,315.15 556.58,319.835 538.352,319.835 538.352,286.8 556.58,286.8 	"/>
	<path display="inline" fill="#E73D18" d="M578.52,291.72l-4.045,2.398c-0.756-1.312-1.477-2.169-2.161-2.568
		c-0.713-0.458-1.633-0.685-2.761-0.685c-1.383,0-2.531,0.393-3.444,1.175c-0.913,0.771-1.368,1.741-1.368,2.911
		c0,1.612,1.197,2.912,3.594,3.894l3.295,1.351c2.683,1.081,4.644,2.405,5.884,3.965c1.242,1.562,1.861,3.478,1.861,5.745
		c0,3.039-1.012,5.553-3.038,7.532c-2.039,1.998-4.572,2.997-7.596,2.997c-2.866,0-5.234-0.851-7.104-2.546
		c-1.839-1.699-2.989-4.086-3.444-7.171l5.05-1.109c0.227,1.939,0.628,3.279,1.197,4.022c1.027,1.425,2.525,2.138,4.495,2.138
		c1.555,0,2.846-0.521,3.871-1.562c1.027-1.042,1.54-2.361,1.54-3.959c0-0.64-0.088-1.228-0.268-1.763
		c-0.178-0.535-0.455-1.03-0.833-1.478c-0.378-0.449-0.868-0.868-1.465-1.265c-0.601-0.388-1.313-0.766-2.142-1.121l-3.187-1.328
		c-4.523-1.91-6.783-4.707-6.783-8.386c0-2.482,0.948-4.556,2.847-6.227c1.896-1.684,4.257-2.523,7.08-2.523
		C573.404,286.159,576.379,288.014,578.52,291.72"/>
	<polygon display="inline" fill="#E73D18" points="591.217,291.484 591.217,319.835 586.231,319.835 586.231,291.484 
		578.636,291.484 578.636,286.8 598.792,286.8 598.792,291.484 	"/>
	<polygon display="inline" fill="#E73331" points="87.436,325.719 87.436,329.257 68.673,329.257 68.673,347.964 65.189,347.964 
		65.189,329.257 46.427,329.257 46.427,325.719 65.189,325.719 65.189,306.956 68.673,306.956 68.673,325.719 	"/>
</g>
<g id="レイヤー_4">
	<path fill="#FFFFFF" d="M289.161,123.299H156.709l-21.151,71.235c3.152-0.37,6.166-0.647,9.043-0.834
		c2.877-0.183,5.519-0.281,7.932-0.281c41.738,0,75.967,14.102,102.681,42.297c26.895,28.013,40.346,63.908,40.346,107.687
		c0,45.267-15.211,82.554-45.635,111.862c-30.428,29.315-68.732,43.968-114.923,43.968c-56.953,0-101.844-26.716-134.679-80.14
		L49.3,377.631c13.538,23.006,27.171,39.234,40.901,48.696c13.729,9.277,30.515,13.913,50.368,13.913
		c25.969,0,47.762-9.088,65.391-27.27c17.622-18.733,26.436-41.459,26.436-68.176c0-27.45-8.722-49.899-26.157-67.338
		c-17.439-17.992-39.237-26.991-65.394-26.991c-29.127,0-54.263,12.706-75.409,38.122H44.011l67.618-225.95h177.532V123.299z"/>
	<path fill="#FFFFFF" d="M554.349,372.344h45.635v58.991h-45.635v60.939h-64.836v-60.939H278.59L554.349,30.638V372.344z
		 M489.513,372.344V228.483l-99.061,143.861H489.513z"/>
	<path fill="#FFFFFF" d="M125.786,553.131v14.648h-5.443V531.71h6.168c3.02,0,5.304,0.21,6.843,0.629
		c1.557,0.422,2.927,1.218,4.114,2.385c2.07,2.022,3.105,4.577,3.105,7.662c0,3.302-1.104,5.92-3.319,7.85
		c-2.21,1.932-5.19,2.896-8.945,2.896H125.786z M125.786,548.085h2.032c4.999,0,7.5-1.923,7.5-5.769
		c0-3.721-2.579-5.586-7.734-5.586h-1.798V548.085z"/>
	<path fill="#FFFFFF" d="M163.781,559.02h-15.443l-4.017,8.76h-5.865l17.85-38.336l17.219,38.336h-5.958L163.781,559.02z
		 M161.561,553.902l-5.349-12.264l-5.605,12.264H161.561z"/>
	<polygon fill="#FFFFFF" points="174.443,567.779 174.443,529.258 200.751,556.777 200.751,531.71 206.189,531.71 206.189,569.975 
		179.886,542.526 179.886,567.779 	"/>
	<polygon fill="#FFFFFF" points="221.162,567.779 228.755,529 241.137,557.032 253.961,529 260.782,567.779 255.201,567.779 
		251.719,546.008 241.043,569.441 230.671,545.983 226.792,567.779 	"/>
	<path fill="#FFFFFF" d="M263.035,549.582c0-5.079,1.86-9.44,5.586-13.085c3.707-3.643,8.157-5.463,13.361-5.463
		c5.14,0,9.545,1.836,13.223,5.512c3.69,3.674,5.537,8.093,5.537,13.248c0,5.184-1.856,9.585-5.563,13.196
		c-3.721,3.631-8.213,5.445-13.478,5.445c-4.657,0-8.84-1.611-12.545-4.839C265.074,560.032,263.035,555.359,263.035,549.582
		 M268.527,549.65c0,3.986,1.338,7.268,4.015,9.838c2.664,2.569,5.739,3.852,9.23,3.852c3.783,0,6.977-1.307,9.576-3.923
		c2.603-2.648,3.901-5.874,3.901-9.673c0-3.848-1.283-7.07-3.853-9.67c-2.554-2.618-5.717-3.928-9.487-3.928
		c-3.752,0-6.924,1.31-9.507,3.928C269.816,542.658,268.527,545.85,268.527,549.65"/>
	<polygon fill="#FFFFFF" points="305.819,531.71 315.795,556.706 325.91,531.71 331.868,531.71 315.679,570.492 299.863,531.71 	"/>
	<polygon fill="#FFFFFF" points="352.672,536.824 338.21,536.824 338.21,545.493 352.25,545.493 352.25,550.607 338.21,550.607 
		338.21,562.664 352.672,562.664 352.672,567.779 332.768,567.779 332.768,531.71 352.672,531.71 	"/>
	<path fill="#FFFFFF" d="M372.85,531.71v21.729c0,3.096,0.507,5.362,1.52,6.795c1.51,2.074,3.636,3.109,6.377,3.109
		c2.758,0,4.89-1.035,6.4-3.109c1.013-1.386,1.519-3.649,1.519-6.795V531.71h5.443v23.221c0,3.799-1.183,6.931-3.552,9.392
		c-2.663,2.743-5.934,4.11-9.811,4.11c-3.879,0-7.143-1.367-9.79-4.11c-2.366-2.461-3.549-5.593-3.549-9.392V531.71H372.85z"/>
	<path fill="#FFFFFF" d="M404.607,553.131v14.648h-5.442V531.71h6.165c3.022,0,5.305,0.21,6.846,0.629
		c1.558,0.422,2.93,1.218,4.111,2.385c2.072,2.022,3.107,4.577,3.107,7.662c0,3.302-1.106,5.92-3.319,7.85
		c-2.208,1.932-5.192,2.896-8.947,2.896H404.607z M404.607,548.085h2.032c4.999,0,7.499-1.923,7.499-5.769
		c0-3.721-2.578-5.586-7.733-5.586h-1.798V548.085z"/>
	<polygon fill="#E73D18" points="434.364,531.71 443.758,555.82 453.568,529.956 462.961,555.82 472.937,531.71 478.846,531.71 
		462.727,570.068 453.45,544.512 443.78,570.095 428.455,531.71 	"/>
	<polygon fill="#E73D18" points="499.648,536.824 485.188,536.824 485.188,545.493 499.227,545.493 499.227,550.607 
		485.188,550.607 485.188,562.664 499.648,562.664 499.648,567.779 479.744,567.779 479.744,531.71 499.648,531.71 	"/>
	<path fill="#E73D18" d="M523.604,537.081l-4.417,2.619c-0.825-1.433-1.612-2.369-2.359-2.804c-0.778-0.5-1.782-0.748-3.014-0.748
		c-1.511,0-2.764,0.429-3.761,1.283c-0.997,0.841-1.495,1.9-1.495,3.179c0,1.76,1.308,3.179,3.924,4.251l3.599,1.475
		c2.929,1.18,5.069,2.626,6.424,4.33c1.356,1.706,2.032,3.796,2.032,6.272c0,3.319-1.104,6.062-3.317,8.225
		c-2.226,2.182-4.992,3.272-8.293,3.272c-3.13,0-5.715-0.929-7.756-2.78c-2.008-1.855-3.264-4.461-3.762-7.829l5.515-1.211
		c0.247,2.116,0.685,3.58,1.307,4.392c1.122,1.555,2.758,2.333,4.908,2.333c1.697,0,3.106-0.568,4.227-1.704
		c1.122-1.138,1.682-2.578,1.682-4.322c0-0.698-0.096-1.341-0.292-1.926c-0.193-0.584-0.497-1.124-0.91-1.612
		c-0.412-0.491-0.947-0.948-1.6-1.381c-0.655-0.424-1.434-0.837-2.337-1.225l-3.48-1.45c-4.938-2.085-7.405-5.14-7.405-9.156
		c0-2.711,1.035-4.975,3.107-6.799c2.07-1.839,4.648-2.755,7.731-2.755C518.018,531.01,521.266,533.035,523.604,537.081"/>
	<polygon fill="#E73D18" points="537.467,536.824 537.467,567.779 532.024,567.779 532.024,536.824 523.73,536.824 523.73,531.71 
		545.738,531.71 545.738,536.824 	"/>
	<polygon fill="#E73331" points="415.745,387.347 415.745,404.28 325.979,404.28 325.979,493.777 309.316,493.777 309.316,404.28 
		219.551,404.28 219.551,387.347 309.316,387.347 309.316,297.584 325.979,297.584 325.979,387.347 	"/>
</g>
</svg>
