<?xml version="1.0" encoding="utf-8"?>
<!-- Generator: Adobe Illustrator 16.0.0, SVG Export Plug-In . SVG Version: 6.00 Build 0)  -->
<!DOCTYPE svg PUBLIC "-//W3C//DTD SVG 1.1//EN" "http://www.w3.org/Graphics/SVG/1.1/DTD/svg11.dtd">
<svg version="1.1" id="レイヤー_1" xmlns="http://www.w3.org/2000/svg" xmlns:xlink="http://www.w3.org/1999/xlink" x="0px"
	 y="0px" width="430px" height="157px" viewBox="0 0 430 157" enable-background="new 0 0 430 157" xml:space="preserve">
<rect fill="#FFFFFF" width="430" height="157"/>
<g>
	<g>
		<g>
			<g>
				<path d="M88.549,61.749v33.834h-3.766V61.749H74.539v-3.598h24.252v3.598H88.549z"/>
				<path d="M108.538,95.583V58.151h17.884v3.598h-14.119v11.519h14.119v3.598h-14.119v15.117h14.119v3.601H108.538z"/>
				<path d="M205.714,95.583l-2.548-27.243l-11.461,27.243L180.243,68.34l-2.547,27.243h-3.544l3.71-37.432h1.495l12.349,29.347
					l12.292-29.347h1.551l3.709,37.432H205.714z"/>
				<path d="M219.169,95.583c0.276-6.979,2.934-10.743,11.074-16.004c8.583-5.537,10.076-7.364,10.076-11.517
					c0-4.431-2.934-7.199-7.586-7.199c-5.812,0-8.803,3.046-9.134,9.413h-3.935c0.444-8.416,4.985-13.013,12.793-13.013
					c7.142,0,11.796,4.208,11.796,10.688c0,5.649-2.106,8.583-10.357,13.732c-6.533,4.098-9.467,6.978-10.187,10.299h20.765v3.601
					H219.169z"/>
				<path d="M264.019,96.468c-8.083,0-13.012-7.419-13.012-19.602c0-12.292,4.929-19.602,13.233-19.602
					c8.251,0,13.18,7.254,13.18,19.493C277.42,89.324,272.545,96.468,264.019,96.468z M264.24,60.864
					c-5.869,0-9.303,5.87-9.303,15.893c0,10.298,3.377,16.113,9.414,16.113c5.704,0,9.137-5.979,9.137-16.003
					C273.488,66.788,270.056,60.864,264.24,60.864z"/>
				<path d="M283.73,95.583c0.276-6.979,2.935-10.743,11.074-16.004c8.583-5.537,10.079-7.364,10.079-11.517
					c0-4.431-2.936-7.199-7.587-7.199c-5.813,0-8.805,3.046-9.137,9.413h-3.931c0.441-8.416,4.984-13.013,12.79-13.013
					c7.146,0,11.794,4.208,11.794,10.688c0,5.649-2.103,8.583-10.354,13.732c-6.534,4.098-9.469,6.978-10.19,10.299h20.765v3.601
					H283.73z"/>
				<path d="M328.582,96.468c-8.086,0-13.013-7.419-13.013-19.602c0-12.292,4.927-19.602,13.232-19.602
					c8.251,0,13.18,7.254,13.18,19.493C341.981,89.324,337.109,96.468,328.582,96.468z M328.802,60.864
					c-5.868,0-9.302,5.87-9.302,15.893c0,10.298,3.377,16.113,9.414,16.113c5.701,0,9.135-5.979,9.135-16.003
					C338.049,66.788,334.615,60.864,328.802,60.864z"/>
			</g>
			<polygon points="150.565,57.32 134.783,95.583 138.881,95.583 143.642,83.623 145.082,80.021 150.565,66.234 156.102,80.021 
				157.541,83.623 162.303,95.583 166.4,95.583 			"/>
		</g>
		<rect x="139.19" y="85.318" width="22.803" height="3.616"/>
	</g>
	<g>
		<path d="M342.439,90.874h4.07v0.452h-1.771v5.142h-0.528v-5.142h-1.771V90.874z"/>
		<path d="M347.24,96.468v-5.594h0.808l1.834,4.935h0.015l1.803-4.935h0.801v5.594h-0.528V91.48h-0.017l-1.832,4.987h-0.498
			l-1.841-4.987h-0.016v4.987H347.24z"/>
	</g>
</g>
</svg>
