<svg width="600" height="600" xmlns="http://www.w3.org/2000/svg">
 <g>
  <title>background</title>
  <rect x="-1" y="-1" width="602" height="602" id="canvas_background" fill="none"/>
 </g>

 <g>
  <title>Layer 1</title>
  <g id="レイヤー_1" display="none">
   <path fill="#323333" d="m61.565,270.09l-28.094,0l-4.486,15.108c0.669,-0.079 1.308,-0.137 1.919,-0.176c0.609,-0.04 1.169,-0.06 1.681,-0.06c8.852,0 16.114,2.991 21.78,8.972c5.703,5.941 8.558,13.553 8.558,22.838c0,9.603 -3.228,17.512 -9.679,23.727c-6.456,6.219 -14.58,9.327 -24.375,9.327c-12.082,0 -21.604,-5.666 -28.567,-16.997l10.388,-8.796c2.871,4.88 5.763,8.323 8.676,10.33c2.911,1.967 6.472,2.949 10.683,2.949c5.508,0 10.131,-1.928 13.869,-5.783c3.738,-3.975 5.607,-8.794 5.607,-14.46c0,-5.823 -1.849,-10.583 -5.547,-14.283c-3.698,-3.814 -8.323,-5.724 -13.871,-5.724c-6.178,0 -11.509,2.695 -15.994,8.085l-4.544,0l14.341,-47.923l37.655,0l0,12.866z" id="svg_1"/>
   <path fill="#323333" d="m117.812,322.911l9.679,0l0,12.513l-9.679,0l0,12.926l-13.752,0l0,-12.926l-44.738,0l58.489,-84.987l0,72.474l0.001,0zm-13.753,0l0,-30.511l-21.011,30.511l21.011,0z" id="svg_2"/>
   <path fill="#030000" d="m170.946,286.604l0,21.69c0,2.592 -0.18,4.523 -0.543,5.794c-0.361,1.449 -0.977,2.673 -1.845,3.672c-1.694,1.981 -3.937,2.973 -6.731,2.973c-2.114,0 -4.088,-0.55 -5.927,-1.648l2.475,-4.32c1.231,0.823 2.382,1.238 3.452,1.238c1.507,0 2.546,-0.574 3.126,-1.717c0.607,-1.145 0.912,-3.139 0.912,-5.991l0,-21.69l5.081,0l0,-0.001z" id="svg_3"/>
   <path fill="#030000" d="m195.336,311.984l-14.352,0l-3.733,8.141l-5.45,0l16.589,-35.627l16.002,35.627l-5.537,0l-3.519,-8.141zm-2.063,-4.755l-4.971,-11.397l-5.209,11.397l10.18,0z" id="svg_4"/>
   <path fill="#030000" d="m210.306,306.511l0,13.614l-5.059,0l0,-33.521l5.732,0c2.807,0 4.93,0.195 6.36,0.584c1.447,0.392 2.72,1.132 3.823,2.216c1.924,1.88 2.886,4.254 2.886,7.121c0,3.068 -1.026,5.502 -3.085,7.295c-2.054,1.795 -4.824,2.69 -8.313,2.69l-2.344,0l0,0.001zm0,-4.689l1.888,0c4.646,0 6.97,-1.787 6.97,-5.361c0,-3.458 -2.396,-5.191 -7.187,-5.191l-1.671,0l0,10.552z" id="svg_5"/>
   <path fill="#030000" d="m245.616,311.984l-14.352,0l-3.734,8.141l-5.45,0l16.588,-35.627l16.002,35.627l-5.537,0l-3.517,-8.141zm-2.063,-4.755l-4.971,-11.397l-5.209,11.397l10.18,0z" id="svg_6"/>
   <polygon fill="#030000" points="255.525,320.125 255.525,284.325 279.975,309.9 279.975,286.604 285.029,286.604    285.029,322.165 260.583,296.656 260.583,320.125  " id="svg_7"/>
   <polygon fill="#030000" points="298.943,320.125 306,284.085 317.508,310.137 329.426,284.085 335.765,320.125    330.578,320.125 327.342,299.892 317.421,321.67 307.781,299.869 304.176,320.125  " id="svg_8"/>
   <path fill="#030000" d="m337.858,303.213c0,-4.72 1.729,-8.773 5.191,-12.161c3.445,-3.385 7.581,-5.077 12.418,-5.077c4.776,0 8.87,1.706 12.289,5.123c3.429,3.414 5.146,7.521 5.146,12.312c0,4.817 -1.726,8.908 -5.171,12.264c-3.458,3.375 -7.633,5.061 -12.525,5.061c-4.328,0 -8.216,-1.497 -11.659,-4.496c-3.793,-3.314 -5.689,-7.657 -5.689,-13.026m5.105,0.064c0,3.704 1.244,6.754 3.731,9.143c2.476,2.388 5.334,3.58 8.578,3.58c3.516,0 6.484,-1.215 8.899,-3.646c2.42,-2.461 3.626,-5.459 3.626,-8.989c0,-3.576 -1.192,-6.572 -3.58,-8.987c-2.374,-2.434 -5.313,-3.65 -8.816,-3.65c-3.487,0 -6.435,1.217 -8.836,3.65c-2.404,2.4 -3.602,5.367 -3.602,8.899" id="svg_9"/>
   <polygon fill="#030000" points="377.62,286.604 386.891,309.834 396.292,286.604 401.829,286.604    386.783,322.646 372.085,286.604  " id="svg_10"/>
   <polygon fill="#030000" points="421.163,291.357 407.723,291.357 407.723,299.413 420.771,299.413    420.771,304.167 407.723,304.167 407.723,315.371 421.163,315.371 421.163,320.125 402.665,320.125 402.665,286.604    421.163,286.604  " id="svg_11"/>
   <path fill="#030000" d="m439.916,286.604l0,20.193c0,2.878 0.471,4.984 1.411,6.314c1.403,1.929 3.379,2.891 5.927,2.891c2.562,0 4.545,-0.962 5.948,-2.891c0.94,-1.287 1.411,-3.391 1.411,-6.314l0,-20.193l5.059,0l0,21.581c0,3.53 -1.099,6.44 -3.301,8.728c-2.475,2.55 -5.514,3.82 -9.117,3.82c-3.604,0 -6.638,-1.271 -9.099,-3.82c-2.199,-2.287 -3.298,-5.197 -3.298,-8.728l0,-21.581l5.059,0z" id="svg_12"/>
   <path fill="#030000" d="m469.43,306.511l0,13.614l-5.059,0l0,-33.521l5.73,0c2.809,0 4.93,0.195 6.362,0.584c1.447,0.392 2.722,1.132 3.82,2.216c1.926,1.88 2.888,4.254 2.888,7.121c0,3.068 -1.028,5.502 -3.084,7.295c-2.053,1.795 -4.826,2.69 -8.315,2.69l-2.342,0l0,0.001zm0,-4.689l1.889,0c4.646,0 6.97,-1.787 6.97,-5.361c0,-3.458 -2.396,-5.191 -7.188,-5.191l-1.671,0l0,10.552z" id="svg_13"/>
   <polygon fill="#E73D18" points="497.084,286.604 505.814,309.012 514.932,284.974 523.661,309.012    532.932,286.604 538.424,286.604 523.443,322.252 514.821,298.501 505.835,322.277 491.593,286.604  " id="svg_14"/>
   <polygon fill="#E73D18" points="557.757,291.357 544.317,291.357 544.317,299.413 557.365,299.413    557.365,304.167 544.317,304.167 544.317,315.371 557.757,315.371 557.757,320.125 539.259,320.125 539.259,286.604    557.757,286.604  " id="svg_15"/>
   <path fill="#E73D18" d="m580.02,291.596l-4.104,2.434c-0.768,-1.331 -1.499,-2.202 -2.193,-2.606c-0.724,-0.464 -1.656,-0.694 -2.801,-0.694c-1.403,0 -2.568,0.398 -3.495,1.192c-0.927,0.782 -1.39,1.767 -1.39,2.954c0,1.636 1.215,2.954 3.646,3.951l3.345,1.371c2.722,1.096 4.712,2.44 5.97,4.024c1.261,1.586 1.889,3.528 1.889,5.829c0,3.085 -1.026,5.635 -3.083,7.644c-2.068,2.027 -4.639,3.041 -7.707,3.041c-2.908,0 -5.312,-0.862 -7.208,-2.583c-1.866,-1.725 -3.033,-4.146 -3.495,-7.276l5.124,-1.126c0.23,1.968 0.637,3.327 1.215,4.082c1.043,1.445 2.562,2.169 4.562,2.169c1.577,0 2.888,-0.529 3.928,-1.584c1.043,-1.058 1.563,-2.396 1.563,-4.018c0,-0.649 -0.089,-1.246 -0.271,-1.789c-0.181,-0.543 -0.463,-1.045 -0.846,-1.499c-0.384,-0.456 -0.882,-0.881 -1.486,-1.283c-0.61,-0.394 -1.333,-0.777 -2.173,-1.138l-3.234,-1.348c-4.59,-1.938 -6.882,-4.777 -6.882,-8.51c0,-2.519 0.962,-4.623 2.888,-6.319c1.924,-1.708 4.32,-2.56 7.185,-2.56c3.861,-0.001 6.88,1.881 9.053,5.642" id="svg_16"/>
   <polygon fill="#E73D18" points="592.903,291.357 592.903,320.125 587.845,320.125 587.845,291.357    580.138,291.357 580.138,286.604 600.59,286.604 600.59,291.357  " id="svg_17"/>
   <polygon fill="#E73331" points="88.414,326.096 88.414,329.686 69.375,329.686 69.375,348.669 65.84,348.669    65.84,329.686 46.801,329.686 46.801,326.096 65.84,326.096 65.84,307.057 69.375,307.057 69.375,326.096  " id="svg_18"/>
  </g>
  <g stroke="null" id="レイヤー_2" fill="none">
   <path stroke="null" fill="#FFFFFF" d="m291.363,226.531719l-132.022,0l-21.081,70.741096c3.142,-0.367618 6.146,-0.644598 9.014,-0.830893c2.867,-0.181333 5.5,-0.27698 7.908,-0.27698c41.601,0 75.718,14.001774 102.345,42.002321c26.809,27.818219 40.215,63.464237 40.215,106.937059c0,44.952291 -15.162,81.980161 -45.486,111.084584c-30.329,29.111394 -68.508,43.662119 -114.549,43.662119c-56.768,0 -101.513,-26.530026 -134.242,-79.583109l48.817,-41.174401c13.494,22.847774 27.083,38.961656 40.769,48.358605c13.684,9.212624 30.415,13.815451 50.202,13.815451c25.885,0 47.609,-9.024331 65.18,-27.079972c17.565,-18.602603 26.348,-41.170414 26.348,-67.701444c0,-27.261285 -8.692,-49.552125 -26.071,-66.871526c-17.383,-17.86535 -39.107,-26.802006 -65.179,-26.802006c-29.033,0 -54.086,12.618918 -75.164,37.85578l-21.357,0l67.397,-224.377937l176.957,0l0,60.241264l-0.001,0l0,-0.000009z" id="svg_19"/>
   <path stroke="null" fill="#FFFFFF" d="m555.689,473.8441l45.486,0l0,58.581466l-45.486,0l0,60.515233l-64.625,0l0,-60.515233l-210.237,0l274.862,-397.910574l0,339.329108zm-64.625,0l0,-142.860047l-98.739,142.860047l98.739,0z" id="svg_20"/>
   <path stroke="null" fill="#FFFFFF" d="m86.306,632.102698l0,23.177541c0,2.767672 -0.193,4.832968 -0.583,6.190889c-0.387,1.548241 -1.047,2.855355 -1.979,3.923388c-1.817,2.118092 -4.224,3.176134 -7.22,3.176134c-2.268,0 -4.386,-0.586803 -6.356,-1.761421l2.655,-4.616776c1.321,0.879721 2.555,1.322067 3.702,1.322067c1.617,0 2.731,-0.612713 3.353,-1.834161c0.651,-1.222442 0.977,-3.35349 0.977,-6.401125l0,-23.177541l5.451,0l0,0.001013l0,-0.000009z" id="svg_21"/>
   <path stroke="null" fill="#FFFFFF" d="m112.466,659.222529l-15.394,0l-4.004,8.698542l-5.845,0l17.792,-38.068979l17.162,38.068979l-5.938,0l-3.773,-8.698542zm-2.214,-5.08204l-5.332,-12.17857l-5.587,12.17857l10.919,0z" id="svg_22"/>
   <path stroke="null" fill="#FFFFFF" d="m128.52,653.375346l0,14.546729l-5.425,0l0,-35.818373l6.146,0c3.013,0 5.287,0.208218 6.821,0.624664c1.553,0.418444 2.918,1.209487 4.1,2.368168c2.065,2.009508 3.097,4.54505 3.097,7.608614c0,3.278771 -1.102,5.879069 -3.309,7.794928c-2.205,1.918842 -5.175,2.876265 -8.918,2.876265l-2.512,0l0,-0.000994zm0,-5.011308l2.027,0c4.981,0 7.474,-1.909874 7.474,-5.728627c0,-3.695217 -2.57,-5.54631 -7.708,-5.54631l-1.792,0l0,11.274937l-0.001,0z" id="svg_23"/>
   <path stroke="null" fill="#FFFFFF" d="m166.392,659.222529l-15.394,0l-4.004,8.698542l-5.845,0l17.791,-38.068979l17.161,38.068979l-5.938,0l-3.771,-8.698542zm-2.213,-5.08204l-5.332,-12.17857l-5.587,12.17857l10.919,0z" id="svg_24"/>
   <polygon stroke="null" fill="#FFFFFF" points="177.0189971923828,667.9211024384713 177.0189971923828,629.6687779340427 203.24000549316406,656.9958227509633 203.24000549316406,632.1026625505183 208.66299438476562,632.1026625505183 208.66299438476562,670.1009264552558 182.44400024414062,642.8436610024655 182.44400024414062,667.9211024384713 " id="svg_25"/>
   <polygon stroke="null" fill="#FFFFFF" points="223.5850067138672,667.9211024384713 231.1540069580078,629.4117766763375 243.49600219726562,657.2488418676076 256.2769775390625,629.4117766763375 263.0790100097656,667.9211024384713 257.51300048828125,667.9211024384713 254.04400634765625,646.3017522998271 243.40199279785156,669.5709341118927 233.06300354003906,646.2778594534611 229.19700622558594,667.9211024384713 " id="svg_26"/>
   <path stroke="null" fill="#FFFFFF" d="m265.323,649.849492c0,-5.043175 1.855,-9.374022 5.566,-12.993526c3.695,-3.617496 8.132,-5.424762 13.319,-5.424762c5.123,0 9.514,1.823204 13.18,5.47358c3.678,3.648397 5.519,8.036017 5.519,13.155918c0,5.1478 -1.85,9.518497 -5.545,13.104117c-3.708,3.605554 -8.187,5.406835 -13.434,5.406835c-4.642,0 -8.811,-1.599038 -12.504,-4.804085c-4.069,-3.539794 -6.101,-8.180482 -6.101,-13.918078m5.473,0.069738c0,3.958238 1.334,7.21608 4.004,9.768564c2.655,2.552484 5.72,3.825723 9.198,3.825723c3.773,0 6.956,-1.298156 9.546,-3.896455c2.594,-2.629201 3.889,-5.832249 3.889,-9.605177c0,-3.820742 -1.278,-7.021802 -3.84,-9.602175c-2.545,-2.600298 -5.7,-3.901446 -9.456,-3.901446c-3.741,0 -6.9,1.301148 -9.476,3.901446c-2.579,2.564435 -3.865,5.734613 -3.865,9.50952" id="svg_27"/>
   <polygon stroke="null" fill="#FFFFFF" points="307.9679870605469,632.1026625505183 317.9110107421875,656.925063167495 327.9939880371094,632.1026625505183 333.9330139160156,632.1026625505183 317.7950134277344,670.614990234375 302.031005859375,632.1026625505183 " id="svg_28"/>
   <polygon stroke="null" fill="#FFFFFF" points="354.6679992675781,637.1817915782449 340.2539978027344,637.1817915782449 340.2539978027344,645.7895876956754 354.24798583984375,645.7895876956754 354.24798583984375,650.8686554596934 340.2539978027344,650.8686554596934 340.2539978027344,662.8410544551152 354.6679992675781,662.8410544551152 354.6679992675781,667.9211024384713 334.8280029296875,667.9211024384713 334.8280029296875,632.1026625505183 354.6679992675781,632.1026625505183 " id="svg_29"/>
   <path stroke="null" fill="#FFFFFF" d="m374.781,632.102698l0,21.577508c0,3.07453 0.504,5.325137 1.514,6.746829c1.505,2.059311 3.624,3.087485 6.356,3.087485c2.748,0 4.874,-1.02717 6.379,-3.087485c1.01,-1.375867 1.515,-3.624475 1.515,-6.746829l0,-21.577508l5.425,0l0,23.05997c0,3.771943 -1.179,6.882327 -3.54,9.325213c-2.654,2.723835 -5.914,4.082769 -9.778,4.082769c-3.866,0 -7.119,-1.357931 -9.758,-4.082769c-2.359,-2.442887 -3.538,-5.55327 -3.538,-9.325213l0,-23.05997l5.425,0z" id="svg_30"/>
   <path stroke="null" fill="#FFFFFF" d="m406.436,653.375346l0,14.546729l-5.426,0l0,-35.818373l6.146,0c3.013,0 5.288,0.208218 6.824,0.624664c1.552,0.418444 2.919,1.209487 4.098,2.368168c2.065,2.009508 3.097,4.54505 3.097,7.608614c0,3.278771 -1.103,5.879069 -3.309,7.794928c-2.201,1.918842 -5.176,2.876265 -8.918,2.876265l-2.512,0l0,-0.000994zm0,-5.011308l2.025,0c4.982,0 7.475,-1.909874 7.475,-5.728627c0,-3.695217 -2.57,-5.54631 -7.708,-5.54631l-1.792,0l0,11.274937z" id="svg_31"/>
   <polygon stroke="null" fill="#E73D18" points="436.09600830078125,632.1026625505183 445.4580078125,656.0454388389771 455.2359924316406,630.3611803689855 464.6000061035156,656.0454388389771 474.5419921875,632.1026625505183 480.4320068359375,632.1026625505183 464.3659973144531,670.1936797101225 455.1189880371094,644.8151884099061 445.4800109863281,670.2205132145027 430.2049865722656,632.1026625505183 " id="svg_32"/>
   <polygon stroke="null" fill="#E73D18" points="501.1679992675781,637.1817915782449 486.75299072265625,637.1817915782449 486.75299072265625,645.7895876956754 500.74700927734375,645.7895876956754 500.74700927734375,650.8686554596934 486.75299072265625,650.8686554596934 486.75299072265625,662.8410544551152 501.1679992675781,662.8410544551152 501.1679992675781,667.9211024384713 481.3280029296875,667.9211024384713 481.3280029296875,632.1026625505183 501.1679992675781,632.1026625505183 " id="svg_33"/>
   <path stroke="null" fill="#E73D18" d="m525.045,637.435809l-4.402,2.600298c-0.823,-1.421702 -1.607,-2.35223 -2.353,-2.784614c-0.776,-0.496146 -1.776,-0.741231 -3.004,-0.741231c-1.505,0 -2.755,0.425414 -3.749,1.27324c-0.993,0.83489 -1.489,1.88796 -1.489,3.156228c0,1.747491 1.303,3.156228 3.911,4.222254l3.586,1.463541c2.92,1.17263 5.054,2.607277 6.403,4.299965c1.352,1.693673 2.025,3.769926 2.025,6.228751c0,3.296707 -1.101,6.020542 -3.306,8.166533c-2.219,2.166929 -4.977,3.249878 -8.267,3.249878c-3.12,0 -5.696,-0.921569 -7.731,-2.759707c-2.001,-1.844114 -3.252,-4.430462 -3.748,-7.775988l5.496,-1.202498c0.247,2.10115 0.683,3.554728 1.303,4.361719c1.118,1.544235 2.748,2.316357 4.892,2.316357c1.692,0 3.098,-0.563904 4.214,-1.691684c1.118,-1.129787 1.676,-2.560448 1.676,-4.29398c0,-0.692413 -0.096,-1.331036 -0.291,-1.910878c-0.193,-0.580837 -0.496,-1.116832 -0.907,-1.601027c-0.411,-0.487178 -0.945,-0.941485 -1.594,-1.371889c-0.654,-0.420414 -1.43,-0.830893 -2.33,-1.216448l-3.469,-1.439638c-4.923,-2.070278 -7.382,-5.102969 -7.382,-9.093083c0,-2.690955 1.031,-4.939563 3.098,-6.750807c2.062,-1.825193 4.633,-2.735796 7.706,-2.735796c4.145,0.001998 7.382,2.012491 9.712,6.030504" id="svg_34"/>
   <polygon stroke="null" fill="#E73D18" points="538.8629760742188,637.1817915782449 538.8629760742188,667.9211024384713 533.43798828125,667.9211024384713 533.43798828125,637.1817915782449 525.1710205078125,637.1817915782449 525.1710205078125,632.1026625505183 547.1069946289062,632.1026625505183 547.1069946289062,637.1817915782449 " id="svg_35"/>
   <polygon stroke="null" fill="#E73331" points="417.5369873046875,488.7435320207296 417.5369873046875,505.5587965515442 328.06201171875,505.5587965515442 328.06201171875,594.4341811893391 311.4540100097656,594.4341811893391 311.4540100097656,505.5587965515442 221.9810028076172,505.5587965515442 221.9810028076172,488.7435320207296 311.4540100097656,488.7435320207296 311.4540100097656,399.6040395350283 328.06201171875,399.6040395350283 328.06201171875,488.7435320207296 " id="svg_36"/>
  </g>
  <g id="レイヤー_3"/>
  <g id="レイヤー_4"/>
 </g>
</svg>